# Rhino

v 0.04 -0.2 0.2
v 0 -0.2 0.2
v 0.04 0.2 0.2
v 0 0.2 0.2
v 0.04 0.2 -0.2
v 0 0.2 -0.2
v 0.04 -0.2 -0.2
v 0 -0.2 -0.2
v 0 -0.2 -0.2
v 0 0.2 -0.2
v 0 -0.2 0.2
v 0 0.2 0.2
v 0.36 -0.2 -0.32
v 0.36 0.2 -0.32
v 0.36 0.16 0.64
v 0.36 -0.16 0.64
v 0.36 -0.2 0.6
v 0.36 0.2 0.6
v 0.36 -0.2 -0.32
v 0.36 0.2 -0.32
v 0.04 -0.2 -0.32
v 0.04 0.2 -0.32
v 0.04 -0.16 0.64
v 0.04 -0.2 0.6
v 0.36 -0.16 0.64
v 0.36 -0.2 0.6
v 0.04 -0.16 0.64
v 0.04 0.16 0.64
v 0.36 -0.16 0.64
v 0.36 0.16 0.64
v 0.344039 0 0.64
v 0.333929 -0.0530056 0.64
v 0.301863 -0.101823 0.64
v 0.253045 -0.13389 0.64
v 0.200039 -0.144 0.64
v 0.147034 -0.13389 0.64
v 0.0982158 -0.101823 0.64
v 0.0661497 -0.0530056 0.64
v 0.0560392 0 0.64
v 0.0661497 0.0530056 0.64
v 0.0982158 0.101823 0.64
v 0.147034 0.13389 0.64
v 0.200039 0.144 0.64
v 0.253045 0.13389 0.64
v 0.301863 0.101823 0.64
v 0.333929 0.0530056 0.64
v 0.04 0.16 0.64
v 0.04 0.2 0.6
v 0.36 0.16 0.64
v 0.36 0.2 0.6
v 0.344039 0 0.64
v 0.344039 0 0.784021
v 0.333929 0.0530056 0.64
v 0.301863 0.101823 0.64
v 0.253045 0.13389 0.64
v 0.200039 0.144 0.64
v 0.147034 0.13389 0.64
v 0.147034 0.13389 0.784021
v 0.0982158 0.101823 0.64
v 0.0982158 0.101823 0.784021
v 0.0661497 0.0530056 0.64
v 0.0560392 0 0.64
v 0.0560392 0 0.784021
v 0.0661497 -0.0530056 0.64
v 0.0982158 -0.101823 0.64
v 0.0982158 -0.101823 0.784021
v 0.147034 -0.13389 0.64
v 0.147034 -0.13389 0.784021
v 0.200039 -0.144 0.64
v 0.200039 -0.144 0.784021
v 0.253045 -0.13389 0.64
v 0.301863 -0.101823 0.64
v 0.333929 -0.0530056 0.64
v 0.344039 0 0.64
v 0.344039 0 0.784021
v 0.333929 -0.0530056 0.784021
v 0.301863 -0.101823 0.784021
v 0.253045 -0.13389 0.784021
v 0.0661497 -0.0530056 0.784021
v 0.0661497 0.0530056 0.784021
v 0.200039 0.144 0.784021
v 0.253045 0.13389 0.784021
v 0.301863 0.101823 0.784021
v 0.333929 0.0530056 0.784021
v 0.344039 0 0.784021
v 0.218035 0 1
v 0.333929 0.0530056 0.784021
v 0.216771 0.00662408 1
v 0.301863 0.101823 0.784021
v 0.212764 0.0127248 1
v 0.206663 0.0167321 1
v 0.200039 0.144 0.784021
v 0.200039 0.0179956 1
v 0.147034 0.13389 0.784021
v 0.193415 0.0167321 1
v 0.0982158 0.101823 0.784021
v 0.187314 0.0127248 1
v 0.0661497 0.0530056 0.784021
v 0.183307 0.00662408 1
v 0.0560392 0 0.784021
v 0.182044 0 1
v 0.0661497 -0.0530056 0.784021
v 0.183307 -0.00662408 1
v 0.0982158 -0.101823 0.784021
v 0.187314 -0.0127248 1
v 0.147034 -0.13389 0.784021
v 0.193415 -0.0167321 1
v 0.200039 -0.144 0.784021
v 0.200039 -0.0179956 1
v 0.253045 -0.13389 0.784021
v 0.206663 -0.0167321 1
v 0.301863 -0.101823 0.784021
v 0.212764 -0.0127248 1
v 0.333929 -0.0530056 0.784021
v 0.216771 -0.00662408 1
v 0.344039 0 0.784021
v 0.218035 0 1
v 0.253045 0.13389 0.784021
v 0.218035 0 1
v 0.216771 0.00662408 1
v 0.212764 0.0127248 1
v 0.206663 0.0167321 1
v 0.200039 0.0179956 1
v 0.193415 0.0167321 1
v 0.187314 0.0127248 1
v 0.183307 0.00662408 1
v 0.182044 0 1
v 0.183307 -0.00662408 1
v 0.187314 -0.0127248 1
v 0.193415 -0.0167321 1
v 0.200039 -0.0179956 1
v 0.206663 -0.0167321 1
v 0.212764 -0.0127248 1
v 0.216771 -0.00662408 1
v 0.04 -0.2 -0.32
v 0.04 0.2 -0.32
v 0.04 -0.2 -0.2
v 0.04 0.2 -0.2
v 0.04 -0.2 0.2
v 0.04 0.2 0.2
v 0.04 -0.16 0.64
v 0.04 0.16 0.64
v 0.04 -0.2 0.6
v 0.04 0.2 0.6
v 0.36 -0.2 -0.32
v 0.36 -0.2 0.6
v 0.04 -0.2 0.2
v 0 -0.2 0.2
v 0 -0.2 -0.2
v 0.04 -0.2 -0.2
v 0.04 -0.2 -0.32
v 0.04 -0.2 0.6
v 0.36 0.2 0.6
v 0.36 0.2 -0.32
v 0 0.2 0.2
v 0.04 0.2 0.2
v 0.04 0.2 -0.2
v 0 0.2 -0.2
v 0.04 0.2 -0.32
v 0.04 0.2 0.6
vt 0 0.289459
vt 0 0.310433
vt 0.22439 0.289459
vt 0.22439 0.310433
vt 0 0.26702
vt 0 0.287994
vt 0.22439 0.26702
vt 0.22439 0.287994
vt 0 0
vt 0 0.22439
vt 0.22439 0
vt 0.22439 0.22439
vt 0.932011 0.538537
vt 0.709085 0.538537
vt 0.731378 0
vt 0.909718 0
vt 0.932011 0.022439
vt 0.709085 0.022439
vt 0.303718 0.686153
vt 0.0807924 0.686153
vt 0.303718 0.865665
vt 0.0807924 0.865665
vt 0.0807924 0.888403
vt 0.0807924 0.920137
vt 0.260305 0.888403
vt 0.260305 0.920137
vt 0.260305 0.483902
vt 0.0807924 0.483902
vt 0.260305 0.663414
vt 0.0807924 0.663414
vt 0.170549 0.654461
vt 0.200283 0.648789
vt 0.227669 0.630801
vt 0.245657 0.603415
vt 0.251329 0.57368
vt 0.245657 0.543945
vt 0.227669 0.51656
vt 0.200283 0.498571
vt 0.170549 0.4929
vt 0.140814 0.498571
vt 0.113428 0.51656
vt 0.0954398 0.543945
vt 0.089768 0.57368
vt 0.0954398 0.603415
vt 0.113428 0.630801
vt 0.140814 0.648789
vt 0 0.311898
vt 0 0.342166
vt 0.179512 0.311898
vt 0.179512 0.342166
vt 0.0793276 0.483902
vt 0 0.483902
vt 0.0793276 0.51542
vt 0.0793276 0.546938
vt 0.0793276 0.578456
vt 0.0793276 0.609974
vt 0.0793276 0.641492
vt 0 0.641492
vt 0.0793276 0.67301
vt 0 0.67301
vt 0.0793276 0.704528
vt 0.0793276 0.736046
vt 0 0.736046
vt 0.0793276 0.767564
vt 0.0793276 0.799082
vt 0 0.799082
vt 0.0793276 0.8306
vt 0 0.8306
vt 0.0793276 0.862118
vt 0 0.862118
vt 0.0793276 0.893636
vt 0.0793276 0.925155
vt 0.0793276 0.956672
vt 0.0793276 0.988191
vt 0 0.988191
vt 0 0.956672
vt 0 0.925155
vt 0 0.893636
vt 0 0.767564
vt 0 0.704528
vt 0 0.609974
vt 0 0.578456
vt 0 0.546938
vt 0 0.51542
vt 0 0.343631
vt 0 0.482437
vt 0.031518 0.343631
vt 0.031518 0.482437
vt 0.063036 0.343631
vt 0.063036 0.482437
vt 0.0945541 0.482437
vt 0.126072 0.343631
vt 0.126072 0.482437
vt 0.15759 0.343631
vt 0.15759 0.482437
vt 0.189108 0.343631
vt 0.189108 0.482437
vt 0.220626 0.343631
vt 0.220626 0.482437
vt 0.252144 0.343631
vt 0.252144 0.482437
vt 0.283662 0.343631
vt 0.283662 0.482437
vt 0.31518 0.343631
vt 0.31518 0.482437
vt 0.346698 0.343631
vt 0.346698 0.482437
vt 0.378216 0.343631
vt 0.378216 0.482437
vt 0.409734 0.343631
vt 0.409734 0.482437
vt 0.441252 0.343631
vt 0.441252 0.482437
vt 0.47277 0.343631
vt 0.47277 0.482437
vt 0.504288 0.343631
vt 0.504288 0.482437
vt 0.0945541 0.343631
vt 0.0201902 0.256192
vt 0.0194814 0.259638
vt 0.0172334 0.262812
vt 0.013811 0.264897
vt 0.0100951 0.265555
vt 0.00637914 0.264897
vt 0.00295678 0.262812
vt 0.000708794 0.259638
vt 0 0.256192
vt 0.000708794 0.252746
vt 0.00295678 0.249572
vt 0.00637914 0.247487
vt 0.0100951 0.246829
vt 0.013811 0.247487
vt 0.0172334 0.249572
vt 0.0194814 0.252746
vt 0.303718 0.924156
vt 0.0807924 0.924156
vt 0.303718 0.991473
vt 0.0807924 0.991473
vt 0.578933 0
vt 0.354543 0
vt 0.556494 0.245365
vt 0.376982 0.245365
vt 0.578933 0.223059
vt 0.354543 0.223059
vt 0.707621 0.483902
vt 0.707621 0.998535
vt 0.52941 0.774782
vt 0.507134 0.774782
vt 0.507134 0.551028
vt 0.52941 0.551028
vt 0.52941 0.483902
vt 0.52941 0.998535
vt 0.505669 0.483902
vt 0.505669 0.998535
vt 0.305183 0.707656
vt 0.327459 0.707656
vt 0.327459 0.931409
vt 0.305183 0.931409
vt 0.327459 0.998535
vt 0.327459 0.483902
vn 0 0 1
vn 0 0 1
vn 0 0 1
vn 0 0 1
vn 0 0 -1
vn 0 0 -1
vn 0 0 -1
vn 0 0 -1
vn -1 0 0
vn -1 0 0
vn -1 0 0
vn -1 0 0
vn 1 0 0
vn 1 0 0
vn 1 0 0
vn 1 0 0
vn 1 0 0
vn 1 0 0
vn 0 0 -1
vn 0 0 -1
vn 0 0 -1
vn 0 0 -1
vn 0 -0.707107 0.707107
vn 0 -0.707107 0.707107
vn 0 -0.707107 0.707107
vn 0 -0.707107 0.707107
vn 0 0 1
vn 0 0 1
vn 0 0 1
vn 0 0 1
vn 0 0 1
vn 0 0 1
vn 0 0 1
vn 0 0 1
vn 0 0 1
vn 0 0 1
vn 0 0 1
vn 0 0 1
vn 0 0 1
vn 0 0 1
vn 0 0 1
vn 0 0 1
vn 0 0 1
vn 0 0 1
vn 0 0 1
vn 0 0 1
vn 0 0.707107 0.707107
vn 0 0.707107 0.707107
vn 0 0.707107 0.707107
vn 0 0.707107 0.707107
vn 1 0 0
vn 1 0 0
vn 0.929788 0.368095 0
vn 0.707107 0.707107 0
vn 0.368095 0.929788 0
vn 0 1 0
vn -0.368095 0.929788 0
vn -0.368095 0.929788 0
vn -0.707107 0.707107 0
vn -0.707107 0.707107 0
vn -0.929788 0.368095 0
vn -1 0 0
vn -1 0 0
vn -0.929788 -0.368095 0
vn -0.707107 -0.707107 0
vn -0.707107 -0.707107 0
vn -0.368095 -0.929788 0
vn -0.368095 -0.929788 0
vn 0 -1 0
vn 0 -1 0
vn 0.368095 -0.929788 0
vn 0.707107 -0.707107 0
vn 0.929788 -0.368095 0
vn 1 0 0
vn 1 0 0
vn 0.929788 -0.368095 0
vn 0.707107 -0.707107 0
vn 0.368095 -0.929788 0
vn -0.929788 -0.368095 0
vn -0.929788 0.368095 0
vn 0 1 0
vn 0.368095 0.929788 0
vn 0.707107 0.707107 0
vn 0.929788 0.368095 0
vn 0.86375 0 0.503921
vn 0.86375 0 0.503921
vn 0.803104 0.317942 0.503921
vn 0.803104 0.317942 0.503921
vn 0.610763 0.610763 0.503921
vn 0.610763 0.610763 0.503921
vn 0.317942 0.803104 0.503921
vn 0 0.86375 0.503921
vn 0 0.86375 0.503921
vn -0.317942 0.803104 0.503921
vn -0.317942 0.803104 0.503921
vn -0.610763 0.610763 0.503921
vn -0.610763 0.610763 0.503921
vn -0.803104 0.317942 0.503921
vn -0.803104 0.317942 0.503921
vn -0.86375 0 0.503921
vn -0.86375 0 0.503921
vn -0.803104 -0.317942 0.503921
vn -0.803104 -0.317942 0.503921
vn -0.610763 -0.610763 0.503921
vn -0.610763 -0.610763 0.503921
vn -0.317942 -0.803104 0.503921
vn -0.317942 -0.803104 0.503921
vn 0 -0.86375 0.503921
vn 0 -0.86375 0.503921
vn 0.317942 -0.803104 0.503921
vn 0.317942 -0.803104 0.503921
vn 0.610763 -0.610763 0.503921
vn 0.610763 -0.610763 0.503921
vn 0.803104 -0.317942 0.503921
vn 0.803104 -0.317942 0.503921
vn 0.86375 0 0.503921
vn 0.86375 0 0.503921
vn 0.317942 0.803104 0.503921
vn 0 0 1
vn 0 0 1
vn 0 0 1
vn 0 0 1
vn 0 0 1
vn 0 0 1
vn 0 0 1
vn 0 0 1
vn 0 0 1
vn 0 0 1
vn 0 0 1
vn 0 0 1
vn 0 0 1
vn 0 0 1
vn 0 0 1
vn 0 0 1
vn -1 0 0
vn -1 0 0
vn -1 0 0
vn -1 0 0
vn -1 0 0
vn -1 0 0
vn -1 0 0
vn -1 0 0
vn -1 0 0
vn -1 0 0
vn 0 -1 0
vn 0 -1 0
vn 0 -1 0
vn 0 -1 0
vn 0 -1 0
vn 0 -1 0
vn 0 -1 0
vn 0 -1 0
vn 0 1 0
vn 0 1 0
vn 0 1 0
vn 0 1 0
vn 0 1 0
vn 0 1 0
vn 0 1 0
vn 0 1 0
f 2/2/2 1/1/1 3/3/3 4/4/4
f 6/6/6 5/5/5 7/7/7 8/8/8
f 10/10/10 9/9/9 11/11/11 12/12/12
f 15/15/15 16/16/16 13/13/13 14/14/14
f 17/17/17 13/13/13 16/16/16
f 18/18/18 15/15/15 14/14/14
f 20/20/20 19/19/19 21/21/21 22/22/22
f 24/24/24 26/26/26 25/25/25 23/23/23
f 39/39/39 27/27/27 38/38/38
f 37/37/37 38/38/38 27/27/27
f 27/27/27 36/36/36 37/37/37
f 27/27/27 35/35/35 36/36/36
f 35/35/35 27/27/27 29/29/29
f 40/40/40 28/28/28 39/39/39
f 27/27/27 39/39/39 28/28/28
f 28/28/28 41/41/41 42/42/42
f 28/28/28 40/40/40 41/41/41
f 43/43/43 28/28/28 42/42/42
f 29/29/29 33/33/33 34/34/34
f 31/31/31 32/32/32 29/29/29
f 33/33/33 29/29/29 32/32/32
f 30/30/30 31/31/31 29/29/29
f 29/29/29 34/34/34 35/35/35
f 30/30/30 43/43/43 44/44/44
f 30/30/30 45/45/45 46/46/46
f 31/31/31 30/30/30 46/46/46
f 44/44/44 45/45/45 30/30/30
f 28/28/28 43/43/43 30/30/30
f 48/48/48 47/47/47 49/49/49 50/50/50
f 51/51/51 53/53/53 84/84/84 52/52/52
f 54/54/54 55/55/55 82/82/82 83/83/83
f 53/53/53 54/54/54 83/83/83 84/84/84
f 56/56/56 57/57/57 58/58/58 81/81/81
f 59/59/59 61/61/61 80/80/80 60/60/60
f 59/59/59 60/60/60 58/58/58 57/57/57
f 55/55/55 56/56/56 81/81/81 82/82/82
f 63/63/63 80/80/80 61/61/61 62/62/62
f 64/64/64 65/65/65 66/66/66 79/79/79
f 69/69/69 70/70/70 68/68/68 67/67/67
f 67/67/67 68/68/68 66/66/66 65/65/65
f 71/71/71 72/72/72 77/77/77 78/78/78
f 73/73/73 74/74/74 75/75/75 76/76/76
f 72/72/72 73/73/73 76/76/76 77/77/77
f 69/69/69 71/71/71 78/78/78 70/70/70
f 79/79/79 63/63/63 62/62/62 64/64/64
f 87/87/87 88/88/88 86/86/86 85/85/85
f 89/89/89 118/118/118 91/91/91 90/90/90
f 89/89/89 90/90/90 88/88/88 87/87/87
f 94/94/94 95/95/95 93/93/93 92/92/92
f 98/98/98 99/99/99 97/97/97 96/96/96
f 96/96/96 97/97/97 95/95/95 94/94/94
f 118/118/118 92/92/92 93/93/93 91/91/91
f 100/100/100 101/101/101 99/99/99 98/98/98
f 104/104/104 105/105/105 103/103/103 102/102/102
f 108/108/108 109/109/109 107/107/107 106/106/106
f 106/106/106 107/107/107 105/105/105 104/104/104
f 112/112/112 113/113/113 111/111/111 110/110/110
f 116/116/116 117/117/117 115/115/115 114/114/114
f 114/114/114 115/115/115 113/113/113 112/112/112
f 110/110/110 111/111/111 109/109/109 108/108/108
f 102/102/102 103/103/103 101/101/101 100/100/100
f 129/129/129 125/125/125 128/128/128
f 129/129/129 122/122/122 125/125/125
f 120/120/120 129/129/129 130/130/130
f 125/125/125 126/126/126 127/127/127
f 128/128/128 125/125/125 127/127/127
f 124/124/124 125/125/125 122/122/122
f 132/132/132 130/130/130 131/131/131
f 119/119/119 132/132/132 133/133/133
f 133/133/133 134/134/134 119/119/119
f 130/130/130 119/119/119 120/120/120
f 123/123/123 124/124/124 122/122/122
f 122/122/122 120/120/120 121/121/121
f 129/129/129 120/120/120 122/122/122
f 130/130/130 132/132/132 119/119/119
f 136/136/136 135/135/135 137/137/137 138/138/138
f 140/140/140 139/139/139 143/143/143 144/144/144
f 144/144/144 143/143/143 141/141/141 142/142/142
f 150/150/150 151/151/151 145/145/145
f 149/149/149 150/150/150 147/147/147 148/148/148
f 150/150/150 145/145/145 147/147/147
f 152/152/152 147/147/147 146/146/146
f 145/145/145 146/146/146 147/147/147
f 160/160/160 153/153/153 156/156/156
f 153/153/153 154/154/154 157/157/157 156/156/156
f 155/155/155 156/156/156 157/157/157 158/158/158
f 159/159/159 157/157/157 154/154/154
