solid OBJECT
  facet normal -1 0 0
    outer loop
      vertex 0.085000000894069672 -0.0032307708170264959 -0.032499998807907104
      vertex 0.085000000894069672 0.0070000002160668373 -0.032499998807907104
      vertex 0.085000000894069672 0.0070000002160668373 -0.042000003159046173
    endloop
  endfacet
  facet normal -0 0 1
    outer loop
      vertex 0.085000000894069672 -0.0070000002160668373 -0.016000000759959221
      vertex 0.12099999934434891 0 -0.016000000759959221
      vertex 0.085000000894069672 0.0070000002160668373 -0.016000000759959221
    endloop
  endfacet
  facet normal -1 0 -0
    outer loop
      vertex 0.085000000894069672 -0.0032307708170264959 -0.032499998807907104
      vertex 0.085000000894069672 -0.0070000002160668373 -0.042000003159046173
      vertex 0.085000000894069672 -0.0070000002160668373 -0.032499998807907104
    endloop
  endfacet
  facet normal -1 -0 0
    outer loop
      vertex 0.085000000894069672 -0.0070000002160668373 -0.042000003159046173
      vertex 0.085000000894069672 -0.0032307708170264959 -0.032499998807907104
      vertex 0.085000000894069672 0.0070000002160668373 -0.042000003159046173
    endloop
  endfacet
  facet normal 0 -1 -0
    outer loop
      vertex 0.085000000894069672 -0.0070000002160668373 -0.032499998807907104
      vertex 0.12099999934434891 -0.0070000002160668373 -0.035500001162290573
      vertex 0.085000000894069672 -0.0070000002160668373 -0.028999999165534973
    endloop
  endfacet
  facet normal 0 -1 0
    outer loop
      vertex 0.12099999934434891 -0.0070000002160668373 -0.035500001162290573
      vertex 0.085000000894069672 -0.0070000002160668373 -0.032499998807907104
      vertex 0.085000000894069672 -0.0070000002160668373 -0.042000003159046173
    endloop
  endfacet
  facet normal 0 -1 0
    outer loop
      vertex 0.085000000894069672 -0.0070000002160668373 -0.016000000759959221
      vertex 0.085000000894069672 -0.0070000002160668373 -0.028999999165534973
      vertex 0.12099999934434891 -0.0070000002160668373 -0.022369999438524246
    endloop
  endfacet
  facet normal 0 1 0
    outer loop
      vertex 0.12099999934434891 0.0070000002160668373 -0.035500001162290573
      vertex 0.085000000894069672 0.0070000002160668373 -0.032499998807907104
      vertex 0.085000000894069672 0.0070000002160668373 -0.028999999165534973
    endloop
  endfacet
  facet normal -0 1 -0
    outer loop
      vertex 0.085000000894069672 0.0070000002160668373 -0.032499998807907104
      vertex 0.12099999934434891 0.0070000002160668373 -0.035500001162290573
      vertex 0.085000000894069672 0.0070000002160668373 -0.042000003159046173
    endloop
  endfacet
  facet normal -0 1 -0
    outer loop
      vertex 0.085000000894069672 0.0070000002160668373 -0.016000000759959221
      vertex 0.12099999934434891 0.0070000002160668373 -0.022369999438524246
      vertex 0.085000000894069672 0.0070000002160668373 -0.028999999165534973
    endloop
  endfacet
  facet normal 0 -0 1
    outer loop
      vertex 0.15700000524520874 0 -0.016000000759959221
      vertex 0.13899999856948853 0 -0.016000000759959221
      vertex 0.13899999856948853 -0.0035000001080334187 -0.016000000759959221
    endloop
  endfacet
  facet normal -0 0 1
    outer loop
      vertex 0.12099999934434891 0 -0.016000000759959221
      vertex 0.13899999856948853 0.0035000001080334187 -0.016000000759959221
      vertex 0.12099999934434891 0.0035000001080334187 -0.016000000759959221
    endloop
  endfacet
  facet normal -0 0 1
    outer loop
      vertex 0.12099999934434891 -0.0035000001080334187 -0.016000000759959221
      vertex 0.13899999856948853 0 -0.016000000759959221
      vertex 0.12099999934434891 0 -0.016000000759959221
    endloop
  endfacet
  facet normal 0.1776824921245958 0 -0.98408786802418879
    outer loop
      vertex 0.13899999856948853 0 -0.032250002026557922
      vertex 0.12099999934434891 0.0035000001080334187 -0.035500001162290573
      vertex 0.13899999856948853 0.0035000001080334187 -0.032250002026557922
    endloop
  endfacet
  facet normal 0.1776824921245958 0 -0.98408786802418879
    outer loop
      vertex 0.13899999856948853 -0.0035000001080334187 -0.032250002026557922
      vertex 0.12099999934434891 0 -0.035500001162290573
      vertex 0.13899999856948853 0 -0.032250002026557922
    endloop
  endfacet
  facet normal 0 -1 -0
    outer loop
      vertex 0.13935999572277069 -0.0070000002160668373 -0.028999999165534973
      vertex 0.15700000524520874 -0.0070000002160668373 -0.028999999165534973
      vertex 0.15700000524520874 -0.0070000002160668373 -0.022500000894069672
    endloop
  endfacet
  facet normal 0 -1 -0
    outer loop
      vertex 0.085000000894069672 -0.0070000002160668373 -0.028999999165534973
      vertex 0.12099999934434891 -0.0070000002160668373 -0.028999999165534973
      vertex 0.12099999934434891 -0.0070000002160668373 -0.022369999438524246
    endloop
  endfacet
  facet normal 0 -1 0
    outer loop
      vertex 0.13935999572277069 -0.0070000002160668373 -0.028999999165534973
      vertex 0.12099999934434891 -0.0070000002160668373 -0.022369999438524246
      vertex 0.12099999934434891 -0.0070000002160668373 -0.028999999165534973
    endloop
  endfacet
  facet normal 0 1 -0
    outer loop
      vertex 0.15700000524520874 0.0070000002160668373 -0.022500000894069672
      vertex 0.15700000524520874 0.0070000002160668373 -0.028999999165534973
      vertex 0.13935999572277069 0.0070000002160668373 -0.028999999165534973
    endloop
  endfacet
  facet normal 0 1 -0
    outer loop
      vertex 0.12099999934434891 0.0070000002160668373 -0.022369999438524246
      vertex 0.12099999934434891 0.0070000002160668373 -0.028999999165534973
      vertex 0.085000000894069672 0.0070000002160668373 -0.028999999165534973
    endloop
  endfacet
  facet normal 0 1 0
    outer loop
      vertex 0.13935999572277069 0.0070000002160668373 -0.028999999165534973
      vertex 0.12099999934434891 0.0070000002160668373 -0.022369999438524246
      vertex 0.13935999572277069 0.0070000002160668373 -0.022369999438524246
    endloop
  endfacet
  facet normal 0 -0 1
    outer loop
      vertex 0.13899999856948853 -0.0035000001080334187 -0.016000000759959221
      vertex 0.12099999934434891 -0.0035000001080334187 -0.016000000759959221
      vertex 0.12099999934434891 -0.0070000002160668373 -0.016000000759959221
    endloop
  endfacet
  facet normal 0 -0 1
    outer loop
      vertex 0.12099999934434891 -0.0035000001080334187 -0.016000000759959221
      vertex 0.085000000894069672 -0.0070000002160668373 -0.016000000759959221
      vertex 0.12099999934434891 -0.0070000002160668373 -0.016000000759959221
    endloop
  endfacet
  facet normal -0 0 1
    outer loop
      vertex 0.085000000894069672 -0.0070000002160668373 -0.016000000759959221
      vertex 0.12099999934434891 -0.0035000001080334187 -0.016000000759959221
      vertex 0.12099999934434891 0 -0.016000000759959221
    endloop
  endfacet
  facet normal 0 -0 1
    outer loop
      vertex 0.13899999856948853 0.0035000001080334187 -0.016000000759959221
      vertex 0.12099999934434891 0.0070000002160668373 -0.016000000759959221
      vertex 0.12099999934434891 0.0035000001080334187 -0.016000000759959221
    endloop
  endfacet
  facet normal 0 0 1
    outer loop
      vertex 0.12099999934434891 0 -0.016000000759959221
      vertex 0.12099999934434891 0.0035000001080334187 -0.016000000759959221
      vertex 0.085000000894069672 0.0070000002160668373 -0.016000000759959221
    endloop
  endfacet
  facet normal 0 0 1
    outer loop
      vertex 0.12099999934434891 0.0035000001080334187 -0.016000000759959221
      vertex 0.12099999934434891 0.0070000002160668373 -0.016000000759959221
      vertex 0.085000000894069672 0.0070000002160668373 -0.016000000759959221
    endloop
  endfacet
  facet normal -0 0 1
    outer loop
      vertex 0.12099999934434891 -0.0070000002160668373 -0.016000000759959221
      vertex 0.15700000524520874 -0.0070000002160668373 -0.016000000759959221
      vertex 0.13899999856948853 -0.0035000001080334187 -0.016000000759959221
    endloop
  endfacet
  facet normal 0 0 1
    outer loop
      vertex 0.15700000524520874 -0.0070000002160668373 -0.016000000759959221
      vertex 0.15700000524520874 0 -0.016000000759959221
      vertex 0.13899999856948853 -0.0035000001080334187 -0.016000000759959221
    endloop
  endfacet
  facet normal -0 0 1
    outer loop
      vertex 0.13899999856948853 0 -0.016000000759959221
      vertex 0.15700000524520874 0 -0.016000000759959221
      vertex 0.13899999856948853 0.0035000001080334187 -0.016000000759959221
    endloop
  endfacet
  facet normal 0 0 1
    outer loop
      vertex 0.12099999934434891 0.0070000002160668373 -0.016000000759959221
      vertex 0.13899999856948853 0.0035000001080334187 -0.016000000759959221
      vertex 0.15700000524520874 0.0070000002160668373 -0.016000000759959221
    endloop
  endfacet
  facet normal 0 0 1
    outer loop
      vertex 0.15700000524520874 0 -0.016000000759959221
      vertex 0.15700000524520874 0.0070000002160668373 -0.016000000759959221
      vertex 0.13899999856948853 0.0035000001080334187 -0.016000000759959221
    endloop
  endfacet
  facet normal -0 0 1
    outer loop
      vertex 0.12099999934434891 0 -0.016000000759959221
      vertex 0.13899999856948853 0 -0.016000000759959221
      vertex 0.13899999856948853 0.0035000001080334187 -0.016000000759959221
    endloop
  endfacet
  facet normal -0 0 1
    outer loop
      vertex 0.12099999934434891 -0.0035000001080334187 -0.016000000759959221
      vertex 0.13899999856948853 -0.0035000001080334187 -0.016000000759959221
      vertex 0.13899999856948853 0 -0.016000000759959221
    endloop
  endfacet
  facet normal 1 0 -0
    outer loop
      vertex 0.15700000524520874 0.0070000002160668373 -0.016000000759959221
      vertex 0.15700000524520874 0 -0.016000000759959221
      vertex 0.15700000524520874 0.0070000002160668373 -0.022500000894069672
    endloop
  endfacet
  facet normal 1 0 -0
    outer loop
      vertex 0.15700000524520874 0 -0.016000000759959221
      vertex 0.15700000524520874 -0.0070000002160668373 -0.016000000759959221
      vertex 0.15700000524520874 -0.0070000002160668373 -0.022500000894069672
    endloop
  endfacet
  facet normal 1 -0 -0
    outer loop
      vertex 0.15700000524520874 0 -0.028999999165534973
      vertex 0.15700000524520874 0 -0.016000000759959221
      vertex 0.15700000524520874 -0.0070000002160668373 -0.022500000894069672
    endloop
  endfacet
  facet normal 1 0 0
    outer loop
      vertex 0.15700000524520874 0 -0.016000000759959221
      vertex 0.15700000524520874 0 -0.028999999165534973
      vertex 0.15700000524520874 0.0070000002160668373 -0.022500000894069672
    endloop
  endfacet
  facet normal 1 0 -0
    outer loop
      vertex 0.15700000524520874 0 -0.028999999165534973
      vertex 0.15700000524520874 -0.0070000002160668373 -0.022500000894069672
      vertex 0.15700000524520874 -0.0070000002160668373 -0.028999999165534973
    endloop
  endfacet
  facet normal 1 -0 0
    outer loop
      vertex 0.15700000524520874 0 -0.028999999165534973
      vertex 0.15700000524520874 0.0070000002160668373 -0.028999999165534973
      vertex 0.15700000524520874 0.0070000002160668373 -0.022500000894069672
    endloop
  endfacet
  facet normal 0.17768261813733824 -0 -0.98408784527188453
    outer loop
      vertex 0.13899999856948853 -0.0035000001080334187 -0.032250002026557922
      vertex 0.13899999856948853 0 -0.032250002026557922
      vertex 0.15700000524520874 0 -0.028999999165534973
    endloop
  endfacet
  facet normal 0.17768261813733824 0 -0.98408784527188453
    outer loop
      vertex 0.13899999856948853 -0.0035000001080334187 -0.032250002026557922
      vertex 0.15700000524520874 0 -0.028999999165534973
      vertex 0.15700000524520874 -0.0070000002160668373 -0.028999999165534973
    endloop
  endfacet
  facet normal 0.1776824921245958 0 -0.98408786802418879
    outer loop
      vertex 0.12099999934434891 -0.0070000002160668373 -0.035500001162290573
      vertex 0.12099999934434891 -0.0035000001080334187 -0.035500001162290573
      vertex 0.13899999856948853 -0.0035000001080334187 -0.032250002026557922
    endloop
  endfacet
  facet normal 0.1776825551309712 -3.3459638213635817e-07 -0.98408785664798104
    outer loop
      vertex 0.15700000524520874 -0.0070000002160668373 -0.028999999165534973
      vertex 0.12099999934434891 -0.0070000002160668373 -0.035500001162290573
      vertex 0.13899999856948853 -0.0035000001080334187 -0.032250002026557922
    endloop
  endfacet
  facet normal 0.17768261813733824 0 -0.98408784527188453
    outer loop
      vertex 0.15700000524520874 0.0070000002160668373 -0.028999999165534973
      vertex 0.15700000524520874 0 -0.028999999165534973
      vertex 0.13899999856948853 0.0035000001080334187 -0.032250002026557922
    endloop
  endfacet
  facet normal 0.1776825551309712 3.3459638213635817e-07 -0.98408785664798104
    outer loop
      vertex 0.12099999934434891 0.0070000002160668373 -0.035500001162290573
      vertex 0.15700000524520874 0.0070000002160668373 -0.028999999165534973
      vertex 0.13899999856948853 0.0035000001080334187 -0.032250002026557922
    endloop
  endfacet
  facet normal 0.17768261813733824 -0 -0.98408784527188453
    outer loop
      vertex 0.15700000524520874 0 -0.028999999165534973
      vertex 0.13899999856948853 0 -0.032250002026557922
      vertex 0.13899999856948853 0.0035000001080334187 -0.032250002026557922
    endloop
  endfacet
  facet normal 0.17768259074329293 -0 -0.9840878502180338
    outer loop
      vertex 0.12099999934434891 -0.0070000002160668373 -0.035500001162290573
      vertex 0.085000000894069672 -0.0070000002160668373 -0.042000003159046173
      vertex 0.12099999934434891 -0.0035000001080334187 -0.035500001162290573
    endloop
  endfacet
  facet normal 0.17768259074329293 0 -0.9840878502180338
    outer loop
      vertex 0.085000000894069672 0.0070000002160668373 -0.042000003159046173
      vertex 0.12099999934434891 0 -0.035500001162290573
      vertex 0.085000000894069672 -0.0070000002160668373 -0.042000003159046173
    endloop
  endfacet
  facet normal 0.17768259074329293 -0 -0.9840878502180338
    outer loop
      vertex 0.12099999934434891 -0.0035000001080334187 -0.035500001162290573
      vertex 0.085000000894069672 -0.0070000002160668373 -0.042000003159046173
      vertex 0.12099999934434891 0 -0.035500001162290573
    endloop
  endfacet
  facet normal 0.17768259074329293 -0 -0.9840878502180338
    outer loop
      vertex 0.12099999934434891 0 -0.035500001162290573
      vertex 0.085000000894069672 0.0070000002160668373 -0.042000003159046173
      vertex 0.12099999934434891 0.0035000001080334187 -0.035500001162290573
    endloop
  endfacet
  facet normal 0.1776824921245958 0 -0.98408786802418879
    outer loop
      vertex 0.13899999856948853 0.0035000001080334187 -0.032250002026557922
      vertex 0.12099999934434891 0.0035000001080334187 -0.035500001162290573
      vertex 0.12099999934434891 0.0070000002160668373 -0.035500001162290573
    endloop
  endfacet
  facet normal 0.17768259074329293 -0 -0.9840878502180338
    outer loop
      vertex 0.12099999934434891 0.0035000001080334187 -0.035500001162290573
      vertex 0.085000000894069672 0.0070000002160668373 -0.042000003159046173
      vertex 0.12099999934434891 0.0070000002160668373 -0.035500001162290573
    endloop
  endfacet
  facet normal 0.1776824921245958 0 -0.98408786802418879
    outer loop
      vertex 0.13899999856948853 0 -0.032250002026557922
      vertex 0.12099999934434891 0 -0.035500001162290573
      vertex 0.12099999934434891 0.0035000001080334187 -0.035500001162290573
    endloop
  endfacet
  facet normal 0.1776824921245958 0 -0.98408786802418879
    outer loop
      vertex 0.13899999856948853 -0.0035000001080334187 -0.032250002026557922
      vertex 0.12099999934434891 -0.0035000001080334187 -0.035500001162290573
      vertex 0.12099999934434891 0 -0.035500001162290573
    endloop
  endfacet
  facet normal 0 -1 -0
    outer loop
      vertex 0.12099999934434891 -0.0070000002160668373 -0.028999999165534973
      vertex 0.12099999934434891 -0.0070000002160668373 -0.035500001162290573
      vertex 0.13935999572277069 -0.0070000002160668373 -0.028999999165534973
    endloop
  endfacet
  facet normal 0 -1 0
    outer loop
      vertex 0.15700000524520874 -0.0070000002160668373 -0.028999999165534973
      vertex 0.13935999572277069 -0.0070000002160668373 -0.028999999165534973
      vertex 0.12099999934434891 -0.0070000002160668373 -0.035500001162290573
    endloop
  endfacet
  facet normal -0 -1 -0
    outer loop
      vertex 0.12099999934434891 -0.0070000002160668373 -0.035500001162290573
      vertex 0.12099999934434891 -0.0070000002160668373 -0.028999999165534973
      vertex 0.085000000894069672 -0.0070000002160668373 -0.028999999165534973
    endloop
  endfacet
  facet normal 0 -1 0
    outer loop
      vertex 0.13935999572277069 -0.0070000002160668373 -0.022369999438524246
      vertex 0.13935999572277069 -0.0070000002160668373 -0.028999999165534973
      vertex 0.15700000524520874 -0.0070000002160668373 -0.022500000894069672
    endloop
  endfacet
  facet normal -0 -1 -0
    outer loop
      vertex 0.12099999934434891 -0.0070000002160668373 -0.016000000759959221
      vertex 0.13935999572277069 -0.0070000002160668373 -0.022369999438524246
      vertex 0.15700000524520874 -0.0070000002160668373 -0.016000000759959221
    endloop
  endfacet
  facet normal 0 -1 -0
    outer loop
      vertex 0.15700000524520874 -0.0070000002160668373 -0.022500000894069672
      vertex 0.15700000524520874 -0.0070000002160668373 -0.016000000759959221
      vertex 0.13935999572277069 -0.0070000002160668373 -0.022369999438524246
    endloop
  endfacet
  facet normal 0 -1 0
    outer loop
      vertex 0.13935999572277069 -0.0070000002160668373 -0.022369999438524246
      vertex 0.12099999934434891 -0.0070000002160668373 -0.016000000759959221
      vertex 0.12099999934434891 -0.0070000002160668373 -0.022369999438524246
    endloop
  endfacet
  facet normal -0 -1 0
    outer loop
      vertex 0.12099999934434891 -0.0070000002160668373 -0.016000000759959221
      vertex 0.085000000894069672 -0.0070000002160668373 -0.016000000759959221
      vertex 0.12099999934434891 -0.0070000002160668373 -0.022369999438524246
    endloop
  endfacet
  facet normal -0 -1 -0
    outer loop
      vertex 0.13935999572277069 -0.0070000002160668373 -0.028999999165534973
      vertex 0.13935999572277069 -0.0070000002160668373 -0.022369999438524246
      vertex 0.12099999934434891 -0.0070000002160668373 -0.022369999438524246
    endloop
  endfacet
  facet normal -0 1 -0
    outer loop
      vertex 0.12099999934434891 0.0070000002160668373 -0.028999999165534973
      vertex 0.13935999572277069 0.0070000002160668373 -0.028999999165534973
      vertex 0.12099999934434891 0.0070000002160668373 -0.035500001162290573
    endloop
  endfacet
  facet normal 0 1 0
    outer loop
      vertex 0.15700000524520874 0.0070000002160668373 -0.028999999165534973
      vertex 0.12099999934434891 0.0070000002160668373 -0.035500001162290573
      vertex 0.13935999572277069 0.0070000002160668373 -0.028999999165534973
    endloop
  endfacet
  facet normal 0 1 0
    outer loop
      vertex 0.12099999934434891 0.0070000002160668373 -0.035500001162290573
      vertex 0.085000000894069672 0.0070000002160668373 -0.028999999165534973
      vertex 0.12099999934434891 0.0070000002160668373 -0.028999999165534973
    endloop
  endfacet
  facet normal -0 1 -0
    outer loop
      vertex 0.13935999572277069 0.0070000002160668373 -0.022369999438524246
      vertex 0.15700000524520874 0.0070000002160668373 -0.022500000894069672
      vertex 0.13935999572277069 0.0070000002160668373 -0.028999999165534973
    endloop
  endfacet
  facet normal -0 1 -0
    outer loop
      vertex 0.12099999934434891 0.0070000002160668373 -0.016000000759959221
      vertex 0.15700000524520874 0.0070000002160668373 -0.016000000759959221
      vertex 0.13935999572277069 0.0070000002160668373 -0.022369999438524246
    endloop
  endfacet
  facet normal 0 1 0
    outer loop
      vertex 0.15700000524520874 0.0070000002160668373 -0.022500000894069672
      vertex 0.13935999572277069 0.0070000002160668373 -0.022369999438524246
      vertex 0.15700000524520874 0.0070000002160668373 -0.016000000759959221
    endloop
  endfacet
  facet normal 0 1 0
    outer loop
      vertex 0.13935999572277069 0.0070000002160668373 -0.022369999438524246
      vertex 0.12099999934434891 0.0070000002160668373 -0.022369999438524246
      vertex 0.12099999934434891 0.0070000002160668373 -0.016000000759959221
    endloop
  endfacet
  facet normal 0 1 -0
    outer loop
      vertex 0.12099999934434891 0.0070000002160668373 -0.016000000759959221
      vertex 0.12099999934434891 0.0070000002160668373 -0.022369999438524246
      vertex 0.085000000894069672 0.0070000002160668373 -0.016000000759959221
    endloop
  endfacet
  facet normal 0 1 0
    outer loop
      vertex 0.13935999572277069 0.0070000002160668373 -0.028999999165534973
      vertex 0.12099999934434891 0.0070000002160668373 -0.028999999165534973
      vertex 0.12099999934434891 0.0070000002160668373 -0.022369999438524246
    endloop
  endfacet
  facet normal 1 0 -0
    outer loop
      vertex 0.085000000894069672 0.01549999974668026 -0.032499998807907104
      vertex 0.085000000894069672 0.0070000002160668373 -0.028999999165534973
      vertex 0.085000000894069672 0.0070000002160668373 -0.032499998807907104
    endloop
  endfacet
  facet normal 1 -0 0
    outer loop
      vertex 0.085000000894069672 -0.0070000002160668373 -0.016000000759959221
      vertex 0.085000000894069672 -0.01549999974668026 -0.032499998807907104
      vertex 0.085000000894069672 -0.0070000002160668373 -0.028999999165534973
    endloop
  endfacet
  facet normal 1 0 0
    outer loop
      vertex 0.085000000894069672 -0.0070000002160668373 -0.032499998807907104
      vertex 0.085000000894069672 -0.0070000002160668373 -0.028999999165534973
      vertex 0.085000000894069672 -0.01549999974668026 -0.032499998807907104
    endloop
  endfacet
  facet normal 1 -0 -0
    outer loop
      vertex 0.085000000894069672 0.0070000002160668373 -0.016000000759959221
      vertex 0.085000000894069672 0.0070000002160668373 -0.028999999165534973
      vertex 0.085000000894069672 0.01549999974668026 -0.032499998807907104
    endloop
  endfacet
  facet normal 1 0 -0
    outer loop
      vertex 0.085000000894069672 0.01549999974668026 0.032499998807907104
      vertex 0.085000000894069672 0.0070000002160668373 -0.016000000759959221
      vertex 0.085000000894069672 0.01549999974668026 -0.032499998807907104
    endloop
  endfacet
  facet normal 1 0 0
    outer loop
      vertex 0.085000000894069672 -0.01549999974668026 -0.032499998807907104
      vertex 0.085000000894069672 -0.0070000002160668373 -0.016000000759959221
      vertex 0.085000000894069672 0.01549999974668026 0.032499998807907104
    endloop
  endfacet
  facet normal 1 -0 0
    outer loop
      vertex 0.085000000894069672 0.0070000002160668373 -0.016000000759959221
      vertex 0.085000000894069672 0.01549999974668026 0.032499998807907104
      vertex 0.085000000894069672 -0.0070000002160668373 -0.016000000759959221
    endloop
  endfacet
  facet normal -0 0 -1
    outer loop
      vertex 0.085000000894069672 -0.0032307708170264959 -0.032499998807907104
      vertex 0.068000003695487976 0.01549999974668026 -0.032499998807907104
      vertex 0.085000000894069672 0.0070000002160668373 -0.032499998807907104
    endloop
  endfacet
  facet normal 0 0 -1
    outer loop
      vertex 0.085000000894069672 0.01549999974668026 -0.032499998807907104
      vertex 0.085000000894069672 0.0070000002160668373 -0.032499998807907104
      vertex 0.068000003695487976 0.01549999974668026 -0.032499998807907104
    endloop
  endfacet
  facet normal -0 0 -1
    outer loop
      vertex 0.068000003695487976 0.01549999974668026 -0.032499998807907104
      vertex 0.085000000894069672 -0.0032307708170264959 -0.032499998807907104
      vertex 0.085000000894069672 -0.0070000002160668373 -0.032499998807907104
    endloop
  endfacet
  facet normal 0 0 -1
    outer loop
      vertex 0.068000003695487976 0.01549999974668026 -0.032499998807907104
      vertex 0.085000000894069672 -0.0070000002160668373 -0.032499998807907104
      vertex 0.085000000894069672 -0.01549999974668026 -0.032499998807907104
    endloop
  endfacet
  facet normal -0 -1 -0
    outer loop
      vertex 0.13935999572277069 -0.0070000002160668373 0.022369999438524246
      vertex 0.13935999572277069 -0.0070000002160668373 0.028999999165534973
      vertex 0.12099999934434891 -0.0070000002160668373 0.028999999165534973
    endloop
  endfacet
  facet normal 0 -1 0
    outer loop
      vertex 0.12099999934434891 -0.0070000002160668373 0.035500001162290573
      vertex 0.12099999934434891 -0.0070000002160668373 0.028999999165534973
      vertex 0.13935999572277069 -0.0070000002160668373 0.028999999165534973
    endloop
  endfacet
  facet normal -0 -1 -0
    outer loop
      vertex 0.15700000524520874 -0.0070000002160668373 0.022500000894069672
      vertex 0.15700000524520874 -0.0070000002160668373 0.028999999165534973
      vertex 0.13935999572277069 -0.0070000002160668373 0.028999999165534973
    endloop
  endfacet
  facet normal -0 -1 -0
    outer loop
      vertex 0.12099999934434891 -0.0070000002160668373 0.035500001162290573
      vertex 0.13935999572277069 -0.0070000002160668373 0.028999999165534973
      vertex 0.15700000524520874 -0.0070000002160668373 0.028999999165534973
    endloop
  endfacet
  facet normal -0 -1 0
    outer loop
      vertex 0.12099999934434891 -0.0070000002160668373 0.028999999165534973
      vertex 0.085000000894069672 -0.0070000002160668373 0.028999999165534973
      vertex 0.12099999934434891 -0.0070000002160668373 0.022369999438524246
    endloop
  endfacet
  facet normal 0 -1 -0
    outer loop
      vertex 0.12099999934434891 -0.0070000002160668373 0.016000000759959221
      vertex 0.12099999934434891 -0.0070000002160668373 0.022369999438524246
      vertex 0.085000000894069672 -0.0070000002160668373 0.016000000759959221
    endloop
  endfacet
  facet normal -0 -1 0
    outer loop
      vertex 0.13935999572277069 -0.0070000002160668373 0.022369999438524246
      vertex 0.12099999934434891 -0.0070000002160668373 0.022369999438524246
      vertex 0.12099999934434891 -0.0070000002160668373 0.016000000759959221
    endloop
  endfacet
  facet normal 0 -1 -0
    outer loop
      vertex 0.15700000524520874 -0.0070000002160668373 0.016000000759959221
      vertex 0.15700000524520874 -0.0070000002160668373 0.022500000894069672
      vertex 0.13935999572277069 -0.0070000002160668373 0.022369999438524246
    endloop
  endfacet
  facet normal 0 -1 -0
    outer loop
      vertex 0.12099999934434891 -0.0070000002160668373 0.016000000759959221
      vertex 0.15700000524520874 -0.0070000002160668373 0.016000000759959221
      vertex 0.13935999572277069 -0.0070000002160668373 0.022369999438524246
    endloop
  endfacet
  facet normal 0 1 0
    outer loop
      vertex 0.13935999572277069 0.0070000002160668373 0.022369999438524246
      vertex 0.12099999934434891 0.0070000002160668373 0.022369999438524246
      vertex 0.12099999934434891 0.0070000002160668373 0.028999999165534973
    endloop
  endfacet
  facet normal -0 1 -0
    outer loop
      vertex 0.12099999934434891 0.0070000002160668373 0.035500001162290573
      vertex 0.13935999572277069 0.0070000002160668373 0.028999999165534973
      vertex 0.12099999934434891 0.0070000002160668373 0.028999999165534973
    endloop
  endfacet
  facet normal 0 1 0
    outer loop
      vertex 0.15700000524520874 0.0070000002160668373 0.022500000894069672
      vertex 0.13935999572277069 0.0070000002160668373 0.022369999438524246
      vertex 0.13935999572277069 0.0070000002160668373 0.028999999165534973
    endloop
  endfacet
  facet normal -0 1 -0
    outer loop
      vertex 0.12099999934434891 0.0070000002160668373 0.035500001162290573
      vertex 0.15700000524520874 0.0070000002160668373 0.028999999165534973
      vertex 0.13935999572277069 0.0070000002160668373 0.028999999165534973
    endloop
  endfacet
  facet normal 0 1 -0
    outer loop
      vertex 0.12099999934434891 0.0070000002160668373 0.028999999165534973
      vertex 0.12099999934434891 0.0070000002160668373 0.022369999438524246
      vertex 0.085000000894069672 0.0070000002160668373 0.028999999165534973
    endloop
  endfacet
  facet normal 0 1 0
    outer loop
      vertex 0.12099999934434891 0.0070000002160668373 0.016000000759959221
      vertex 0.085000000894069672 0.0070000002160668373 0.016000000759959221
      vertex 0.12099999934434891 0.0070000002160668373 0.022369999438524246
    endloop
  endfacet
  facet normal 0 1 0
    outer loop
      vertex 0.13935999572277069 0.0070000002160668373 0.022369999438524246
      vertex 0.12099999934434891 0.0070000002160668373 0.016000000759959221
      vertex 0.12099999934434891 0.0070000002160668373 0.022369999438524246
    endloop
  endfacet
  facet normal 0 1 0
    outer loop
      vertex 0.15700000524520874 0.0070000002160668373 0.016000000759959221
      vertex 0.13935999572277069 0.0070000002160668373 0.022369999438524246
      vertex 0.15700000524520874 0.0070000002160668373 0.022500000894069672
    endloop
  endfacet
  facet normal 0 1 -0
    outer loop
      vertex 0.12099999934434891 0.0070000002160668373 0.016000000759959221
      vertex 0.13935999572277069 0.0070000002160668373 0.022369999438524246
      vertex 0.15700000524520874 0.0070000002160668373 0.016000000759959221
    endloop
  endfacet
  facet normal -0 -0 -1
    outer loop
      vertex 0.13899999856948853 -0.0035000001080334187 0.016000000759959221
      vertex 0.12099999934434891 -0.0035000001080334187 0.016000000759959221
      vertex 0.12099999934434891 0 0.016000000759959221
    endloop
  endfacet
  facet normal -0 -0 -1
    outer loop
      vertex 0.13899999856948853 0 0.016000000759959221
      vertex 0.12099999934434891 0 0.016000000759959221
      vertex 0.12099999934434891 0.0035000001080334187 0.016000000759959221
    endloop
  endfacet
  facet normal -0 -0 -1
    outer loop
      vertex 0.12099999934434891 0.0035000001080334187 0.016000000759959221
      vertex 0.085000000894069672 0.0070000002160668373 0.016000000759959221
      vertex 0.12099999934434891 0.0070000002160668373 0.016000000759959221
    endloop
  endfacet
  facet normal -0 -0 -1
    outer loop
      vertex 0.13899999856948853 0.0035000001080334187 0.016000000759959221
      vertex 0.12099999934434891 0.0035000001080334187 0.016000000759959221
      vertex 0.12099999934434891 0.0070000002160668373 0.016000000759959221
    endloop
  endfacet
  facet normal -0 -0 -1
    outer loop
      vertex 0.12099999934434891 0 0.016000000759959221
      vertex 0.085000000894069672 0.0070000002160668373 0.016000000759959221
      vertex 0.12099999934434891 0.0035000001080334187 0.016000000759959221
    endloop
  endfacet
  facet normal 0 -0 -1
    outer loop
      vertex 0.12099999934434891 -0.0035000001080334187 0.016000000759959221
      vertex 0.085000000894069672 -0.0070000002160668373 0.016000000759959221
      vertex 0.12099999934434891 0 0.016000000759959221
    endloop
  endfacet
  facet normal -0 -0 -1
    outer loop
      vertex 0.12099999934434891 -0.0070000002160668373 0.016000000759959221
      vertex 0.085000000894069672 -0.0070000002160668373 0.016000000759959221
      vertex 0.12099999934434891 -0.0035000001080334187 0.016000000759959221
    endloop
  endfacet
  facet normal -0 -0 -1
    outer loop
      vertex 0.15700000524520874 0 0.016000000759959221
      vertex 0.13899999856948853 0 0.016000000759959221
      vertex 0.13899999856948853 0.0035000001080334187 0.016000000759959221
    endloop
  endfacet
  facet normal 0 0 -1
    outer loop
      vertex 0.12099999934434891 0.0070000002160668373 0.016000000759959221
      vertex 0.15700000524520874 0.0070000002160668373 0.016000000759959221
      vertex 0.13899999856948853 0.0035000001080334187 0.016000000759959221
    endloop
  endfacet
  facet normal 0 0 -1
    outer loop
      vertex 0.15700000524520874 0.0070000002160668373 0.016000000759959221
      vertex 0.15700000524520874 0 0.016000000759959221
      vertex 0.13899999856948853 0.0035000001080334187 0.016000000759959221
    endloop
  endfacet
  facet normal -0 -0 -1
    outer loop
      vertex 0.15700000524520874 -0.0070000002160668373 0.016000000759959221
      vertex 0.12099999934434891 -0.0070000002160668373 0.016000000759959221
      vertex 0.13899999856948853 -0.0035000001080334187 0.016000000759959221
    endloop
  endfacet
  facet normal 0 -0 -1
    outer loop
      vertex 0.12099999934434891 -0.0070000002160668373 0.016000000759959221
      vertex 0.12099999934434891 -0.0035000001080334187 0.016000000759959221
      vertex 0.13899999856948853 -0.0035000001080334187 0.016000000759959221
    endloop
  endfacet
  facet normal 0 0 -1
    outer loop
      vertex 0.13899999856948853 -0.0035000001080334187 0.016000000759959221
      vertex 0.15700000524520874 0 0.016000000759959221
      vertex 0.15700000524520874 -0.0070000002160668373 0.016000000759959221
    endloop
  endfacet
  facet normal 0 -0 -1
    outer loop
      vertex 0.13899999856948853 -0.0035000001080334187 0.016000000759959221
      vertex 0.13899999856948853 0 0.016000000759959221
      vertex 0.15700000524520874 0 0.016000000759959221
    endloop
  endfacet
  facet normal 1 -0 0
    outer loop
      vertex 0.15700000524520874 0 0.016000000759959221
      vertex 0.15700000524520874 0.0070000002160668373 0.016000000759959221
      vertex 0.15700000524520874 0.0070000002160668373 0.022500000894069672
    endloop
  endfacet
  facet normal 1 0 -0
    outer loop
      vertex 0.15700000524520874 0 0.016000000759959221
      vertex 0.15700000524520874 -0.0070000002160668373 0.022500000894069672
      vertex 0.15700000524520874 -0.0070000002160668373 0.016000000759959221
    endloop
  endfacet
  facet normal 1 0 0
    outer loop
      vertex 0.15700000524520874 0 0.028999999165534973
      vertex 0.15700000524520874 0 0.016000000759959221
      vertex 0.15700000524520874 0.0070000002160668373 0.022500000894069672
    endloop
  endfacet
  facet normal 1 -0 -0
    outer loop
      vertex 0.15700000524520874 0 0.016000000759959221
      vertex 0.15700000524520874 0 0.028999999165534973
      vertex 0.15700000524520874 -0.0070000002160668373 0.022500000894069672
    endloop
  endfacet
  facet normal 1 0 -0
    outer loop
      vertex 0.15700000524520874 0 0.028999999165534973
      vertex 0.15700000524520874 -0.0070000002160668373 0.028999999165534973
      vertex 0.15700000524520874 -0.0070000002160668373 0.022500000894069672
    endloop
  endfacet
  facet normal 1 0 -0
    outer loop
      vertex 0.15700000524520874 0.0070000002160668373 0.028999999165534973
      vertex 0.15700000524520874 0 0.028999999165534973
      vertex 0.15700000524520874 0.0070000002160668373 0.022500000894069672
    endloop
  endfacet
  facet normal 0.1776824921245958 0 0.98408786802418879
    outer loop
      vertex 0.12099999934434891 -0.0035000001080334187 0.035500001162290573
      vertex 0.13899999856948853 -0.0035000001080334187 0.032250002026557922
      vertex 0.13899999856948853 0 0.032250002026557922
    endloop
  endfacet
  facet normal 0.1776824921245958 0 0.98408786802418879
    outer loop
      vertex 0.12099999934434891 0 0.035500001162290573
      vertex 0.13899999856948853 0 0.032250002026557922
      vertex 0.13899999856948853 0.0035000001080334187 0.032250002026557922
    endloop
  endfacet
  facet normal 0.17768261813733824 -0 0.98408784527188453
    outer loop
      vertex 0.15700000524520874 0 0.028999999165534973
      vertex 0.15700000524520874 0.0070000002160668373 0.028999999165534973
      vertex 0.13899999856948853 0.0035000001080334187 0.032250002026557922
    endloop
  endfacet
  facet normal 0.1776825551309712 3.3459638213635817e-07 0.98408785664798104
    outer loop
      vertex 0.12099999934434891 0.0070000002160668373 0.035500001162290573
      vertex 0.13899999856948853 0.0035000001080334187 0.032250002026557922
      vertex 0.15700000524520874 0.0070000002160668373 0.028999999165534973
    endloop
  endfacet
  facet normal 0.17768261813733824 0 0.98408784527188453
    outer loop
      vertex 0.13899999856948853 0 0.032250002026557922
      vertex 0.15700000524520874 0 0.028999999165534973
      vertex 0.13899999856948853 0.0035000001080334187 0.032250002026557922
    endloop
  endfacet
  facet normal 0.17768261813733824 -0 0.98408784527188453
    outer loop
      vertex 0.15700000524520874 -0.0070000002160668373 0.028999999165534973
      vertex 0.15700000524520874 0 0.028999999165534973
      vertex 0.13899999856948853 -0.0035000001080334187 0.032250002026557922
    endloop
  endfacet
  facet normal 0.17768261813733824 0 0.98408784527188453
    outer loop
      vertex 0.13899999856948853 0 0.032250002026557922
      vertex 0.13899999856948853 -0.0035000001080334187 0.032250002026557922
      vertex 0.15700000524520874 0 0.028999999165534973
    endloop
  endfacet
  facet normal 0.1776825551309712 -3.3459638213635817e-07 0.98408785664798104
    outer loop
      vertex 0.12099999934434891 -0.0070000002160668373 0.035500001162290573
      vertex 0.15700000524520874 -0.0070000002160668373 0.028999999165534973
      vertex 0.13899999856948853 -0.0035000001080334187 0.032250002026557922
    endloop
  endfacet
  facet normal 0.17768259074329293 -0 0.9840878502180338
    outer loop
      vertex 0.12099999934434891 0.0035000001080334187 0.035500001162290573
      vertex 0.12099999934434891 0.0070000002160668373 0.035500001162290573
      vertex 0.085000000894069672 0.0070000002160668373 0.042000003159046173
    endloop
  endfacet
  facet normal 0.17768259074329293 -0 0.9840878502180338
    outer loop
      vertex 0.12099999934434891 0 0.035500001162290573
      vertex 0.12099999934434891 0.0035000001080334187 0.035500001162290573
      vertex 0.085000000894069672 0.0070000002160668373 0.042000003159046173
    endloop
  endfacet
  facet normal 0.1776824921245958 0 0.98408786802418879
    outer loop
      vertex 0.13899999856948853 0.0035000001080334187 0.032250002026557922
      vertex 0.12099999934434891 0.0070000002160668373 0.035500001162290573
      vertex 0.12099999934434891 0.0035000001080334187 0.035500001162290573
    endloop
  endfacet
  facet normal 0.17768259074329293 -0 0.9840878502180338
    outer loop
      vertex 0.085000000894069672 -0.0070000002160668373 0.042000003159046173
      vertex 0.12099999934434891 -0.0035000001080334187 0.035500001162290573
      vertex 0.12099999934434891 0 0.035500001162290573
    endloop
  endfacet
  facet normal 0.17768259074329293 -0 0.9840878502180338
    outer loop
      vertex 0.12099999934434891 -0.0035000001080334187 0.035500001162290573
      vertex 0.085000000894069672 -0.0070000002160668373 0.042000003159046173
      vertex 0.12099999934434891 -0.0070000002160668373 0.035500001162290573
    endloop
  endfacet
  facet normal 0.17768259074329293 0 0.9840878502180338
    outer loop
      vertex 0.085000000894069672 -0.0070000002160668373 0.042000003159046173
      vertex 0.12099999934434891 0 0.035500001162290573
      vertex 0.085000000894069672 0.0070000002160668373 0.042000003159046173
    endloop
  endfacet
  facet normal 0.1776824921245958 0 0.98408786802418879
    outer loop
      vertex 0.13899999856948853 -0.0035000001080334187 0.032250002026557922
      vertex 0.12099999934434891 -0.0035000001080334187 0.035500001162290573
      vertex 0.12099999934434891 -0.0070000002160668373 0.035500001162290573
    endloop
  endfacet
  facet normal 0 -1 0
    outer loop
      vertex 0.13935999572277069 -0.0070000002160668373 0.022369999438524246
      vertex 0.12099999934434891 -0.0070000002160668373 0.028999999165534973
      vertex 0.12099999934434891 -0.0070000002160668373 0.022369999438524246
    endloop
  endfacet
  facet normal 0 -1 -0
    outer loop
      vertex 0.085000000894069672 -0.0070000002160668373 0.028999999165534973
      vertex 0.12099999934434891 -0.0070000002160668373 0.028999999165534973
      vertex 0.12099999934434891 -0.0070000002160668373 0.035500001162290573
    endloop
  endfacet
  facet normal 0 -1 0
    outer loop
      vertex 0.15700000524520874 -0.0070000002160668373 0.022500000894069672
      vertex 0.13935999572277069 -0.0070000002160668373 0.028999999165534973
      vertex 0.13935999572277069 -0.0070000002160668373 0.022369999438524246
    endloop
  endfacet
  facet normal 0 1 0
    outer loop
      vertex 0.13935999572277069 0.0070000002160668373 0.022369999438524246
      vertex 0.12099999934434891 0.0070000002160668373 0.028999999165534973
      vertex 0.13935999572277069 0.0070000002160668373 0.028999999165534973
    endloop
  endfacet
  facet normal 0 1 -0
    outer loop
      vertex 0.12099999934434891 0.0070000002160668373 0.035500001162290573
      vertex 0.12099999934434891 0.0070000002160668373 0.028999999165534973
      vertex 0.085000000894069672 0.0070000002160668373 0.028999999165534973
    endloop
  endfacet
  facet normal 0 1 0
    outer loop
      vertex 0.15700000524520874 0.0070000002160668373 0.022500000894069672
      vertex 0.13935999572277069 0.0070000002160668373 0.028999999165534973
      vertex 0.15700000524520874 0.0070000002160668373 0.028999999165534973
    endloop
  endfacet
  facet normal -0 -0 -1
    outer loop
      vertex 0.13899999856948853 -0.0035000001080334187 0.016000000759959221
      vertex 0.12099999934434891 0 0.016000000759959221
      vertex 0.13899999856948853 0 0.016000000759959221
    endloop
  endfacet
  facet normal -0 -0 -1
    outer loop
      vertex 0.13899999856948853 0 0.016000000759959221
      vertex 0.12099999934434891 0.0035000001080334187 0.016000000759959221
      vertex 0.13899999856948853 0.0035000001080334187 0.016000000759959221
    endloop
  endfacet
  facet normal 0.1776824921245958 0 0.98408786802418879
    outer loop
      vertex 0.12099999934434891 -0.0035000001080334187 0.035500001162290573
      vertex 0.13899999856948853 0 0.032250002026557922
      vertex 0.12099999934434891 0 0.035500001162290573
    endloop
  endfacet
  facet normal 0.1776824921245958 0 0.98408786802418879
    outer loop
      vertex 0.12099999934434891 0 0.035500001162290573
      vertex 0.13899999856948853 0.0035000001080334187 0.032250002026557922
      vertex 0.12099999934434891 0.0035000001080334187 0.035500001162290573
    endloop
  endfacet
  facet normal 0 -1 -0
    outer loop
      vertex 0.085000000894069672 -0.0070000002160668373 0.032499998807907104
      vertex 0.12099999934434891 -0.0070000002160668373 0.035500001162290573
      vertex 0.085000000894069672 -0.0070000002160668373 0.042000003159046173
    endloop
  endfacet
  facet normal -0 -1 0
    outer loop
      vertex 0.12099999934434891 -0.0070000002160668373 0.035500001162290573
      vertex 0.085000000894069672 -0.0070000002160668373 0.032499998807907104
      vertex 0.085000000894069672 -0.0070000002160668373 0.028999999165534973
    endloop
  endfacet
  facet normal 0 -1 0
    outer loop
      vertex 0.085000000894069672 -0.0070000002160668373 0.028999999165534973
      vertex 0.085000000894069672 -0.0070000002160668373 0.016000000759959221
      vertex 0.12099999934434891 -0.0070000002160668373 0.022369999438524246
    endloop
  endfacet
  facet normal 0 1 0
    outer loop
      vertex 0.12099999934434891 0.0070000002160668373 0.035500001162290573
      vertex 0.085000000894069672 0.0070000002160668373 0.032499998807907104
      vertex 0.085000000894069672 0.0070000002160668373 0.042000003159046173
    endloop
  endfacet
  facet normal 0 1 -0
    outer loop
      vertex 0.085000000894069672 0.0070000002160668373 0.032499998807907104
      vertex 0.12099999934434891 0.0070000002160668373 0.035500001162290573
      vertex 0.085000000894069672 0.0070000002160668373 0.028999999165534973
    endloop
  endfacet
  facet normal -0 1 -0
    outer loop
      vertex 0.085000000894069672 0.0070000002160668373 0.028999999165534973
      vertex 0.12099999934434891 0.0070000002160668373 0.022369999438524246
      vertex 0.085000000894069672 0.0070000002160668373 0.016000000759959221
    endloop
  endfacet
  facet normal 0 0 -1
    outer loop
      vertex 0.085000000894069672 0.0070000002160668373 0.016000000759959221
      vertex 0.12099999934434891 0 0.016000000759959221
      vertex 0.085000000894069672 -0.0070000002160668373 0.016000000759959221
    endloop
  endfacet
  facet normal -1 0 -0
    outer loop
      vertex 0.085000000894069672 0.0070000002160668373 0.042000003159046173
      vertex 0.085000000894069672 0.0032307708170264959 0.032499998807907104
      vertex 0.085000000894069672 -0.0070000002160668373 0.042000003159046173
    endloop
  endfacet
  facet normal -1 -0 0
    outer loop
      vertex 0.085000000894069672 0.0032307708170264959 0.032499998807907104
      vertex 0.085000000894069672 0.0070000002160668373 0.042000003159046173
      vertex 0.085000000894069672 0.0070000002160668373 0.032499998807907104
    endloop
  endfacet
  facet normal -1 -0 -0
    outer loop
      vertex 0.085000000894069672 0.0032307708170264959 0.032499998807907104
      vertex 0.085000000894069672 -0.0070000002160668373 0.032499998807907104
      vertex 0.085000000894069672 -0.0070000002160668373 0.042000003159046173
    endloop
  endfacet
  facet normal 0 -0 -1
    outer loop
      vertex 0.054499998688697815 -0.01549999974668026 -0.017500000074505806
      vertex 0.041999999433755875 -0.025499999523162842 -0.017500000074505806
      vertex 0.041999999433755875 -0.01549999974668026 -0.017500000074505806
    endloop
  endfacet
  facet normal 0 0 -1
    outer loop
      vertex 0.054499998688697815 -0.01549999974668026 -0.017500000074505806
      vertex 0.067000001668930054 -0.01549999974668026 -0.017500000074505806
      vertex 0.067000001668930054 -0.025499999523162842 -0.017500000074505806
    endloop
  endfacet
  facet normal 0 0 1
    outer loop
      vertex 0.067000001668930054 -0.025499999523162842 0.017500000074505806
      vertex 0.066617444157600403 -0.01549999974668026 0.017500000074505806
      vertex 0.054499998688697815 -0.01549999974668026 0.017500000074505806
    endloop
  endfacet
  facet normal 0 0 1
    outer loop
      vertex 0.066617444157600403 -0.01549999974668026 0.017500000074505806
      vertex 0.067000001668930054 -0.025499999523162842 0.017500000074505806
      vertex 0.067000001668930054 -0.01549999974668026 0.017500000074505806
    endloop
  endfacet
  facet normal 0 -0 1
    outer loop
      vertex 0.054499998688697815 -0.01549999974668026 0.017500000074505806
      vertex 0.041999999433755875 -0.01549999974668026 0.017500000074505806
      vertex 0.041999999433755875 -0.025499999523162842 0.017500000074505806
    endloop
  endfacet
  facet normal -1 0 0
    outer loop
      vertex 0.041999999433755875 -0.01549999974668026 -0.017263548448681831
      vertex 0.041999999433755875 -0.025499999523162842 -0.017500000074505806
      vertex 0.041999999433755875 -0.01549999974668026 0
    endloop
  endfacet
  facet normal -1 0 -0
    outer loop
      vertex 0.041999999433755875 -0.025499999523162842 -0.017500000074505806
      vertex 0.041999999433755875 -0.01549999974668026 -0.017263548448681831
      vertex 0.041999999433755875 -0.01549999974668026 -0.017500000074505806
    endloop
  endfacet
  facet normal -1 -0 -0
    outer loop
      vertex 0.041999999433755875 -0.025499999523162842 0.017500000074505806
      vertex 0.041999999433755875 -0.01549999974668026 0.017500000074505806
      vertex 0.041999999433755875 -0.01549999974668026 0
    endloop
  endfacet
  facet normal 1 -0 -0
    outer loop
      vertex 0.067000001668930054 -0.01549999974668026 -0.017500000074505806
      vertex 0.067000001668930054 -0.01549999974668026 0
      vertex 0.067000001668930054 -0.025499999523162842 -0.017500000074505806
    endloop
  endfacet
  facet normal 1 0 0
    outer loop
      vertex 0.067000001668930054 -0.025499999523162842 0.017500000074505806
      vertex 0.067000001668930054 -0.01549999974668026 0
      vertex 0.067000001668930054 -0.01549999974668026 0.017500000074505806
    endloop
  endfacet
  facet normal 0 -1 0
    outer loop
      vertex 0.067000001668930054 -0.035500001162290573 0.017500000074505806
      vertex 0.054499998688697815 -0.035500001162290573 0.017500000074505806
      vertex 0.067000001668930054 -0.035500001162290573 0
    endloop
  endfacet
  facet normal 0 -1 -0
    outer loop
      vertex 0.054499998688697815 -0.035500001162290573 0.017500000074505806
      vertex 0.041999999433755875 -0.035500001162290573 0.017500000074505806
      vertex 0.041999999433755875 -0.035500001162290573 0
    endloop
  endfacet
  facet normal 0 -1 0
    outer loop
      vertex 0.054499998688697815 -0.035500001162290573 -0.017500000074505806
      vertex 0.054499998688697815 -0.035500001162290573 0.017500000074505806
      vertex 0.041999999433755875 -0.035500001162290573 0
    endloop
  endfacet
  facet normal -0 -1 -0
    outer loop
      vertex 0.054499998688697815 -0.035500001162290573 0.017500000074505806
      vertex 0.054499998688697815 -0.035500001162290573 -0.017500000074505806
      vertex 0.067000001668930054 -0.035500001162290573 0
    endloop
  endfacet
  facet normal 0 -1 0
    outer loop
      vertex 0.054499998688697815 -0.035500001162290573 -0.017500000074505806
      vertex 0.041999999433755875 -0.035500001162290573 0
      vertex 0.041999999433755875 -0.035500001162290573 -0.017500000074505806
    endloop
  endfacet
  facet normal -0 -1 0
    outer loop
      vertex 0.054499998688697815 -0.035500001162290573 -0.017500000074505806
      vertex 0.067000001668930054 -0.035500001162290573 -0.017500000074505806
      vertex 0.067000001668930054 -0.035500001162290573 0
    endloop
  endfacet
  facet normal -0 -0 -1
    outer loop
      vertex 0.067000001668930054 -0.035500001162290573 -0.017500000074505806
      vertex 0.054499998688697815 -0.035500001162290573 -0.017500000074505806
      vertex 0.067000001668930054 -0.025499999523162842 -0.017500000074505806
    endloop
  endfacet
  facet normal -0 -0 -1
    outer loop
      vertex 0.054499998688697815 -0.035500001162290573 -0.017500000074505806
      vertex 0.041999999433755875 -0.035500001162290573 -0.017500000074505806
      vertex 0.041999999433755875 -0.025499999523162842 -0.017500000074505806
    endloop
  endfacet
  facet normal 0 -0 -1
    outer loop
      vertex 0.054499998688697815 -0.01549999974668026 -0.017500000074505806
      vertex 0.054499998688697815 -0.035500001162290573 -0.017500000074505806
      vertex 0.041999999433755875 -0.025499999523162842 -0.017500000074505806
    endloop
  endfacet
  facet normal -0 0 -1
    outer loop
      vertex 0.054499998688697815 -0.035500001162290573 -0.017500000074505806
      vertex 0.054499998688697815 -0.01549999974668026 -0.017500000074505806
      vertex 0.067000001668930054 -0.025499999523162842 -0.017500000074505806
    endloop
  endfacet
  facet normal -0 -0 1
    outer loop
      vertex 0.054499998688697815 -0.035500001162290573 0.017500000074505806
      vertex 0.054499998688697815 -0.01549999974668026 0.017500000074505806
      vertex 0.041999999433755875 -0.025499999523162842 0.017500000074505806
    endloop
  endfacet
  facet normal 0 0 1
    outer loop
      vertex 0.054499998688697815 -0.01549999974668026 0.017500000074505806
      vertex 0.054499998688697815 -0.035500001162290573 0.017500000074505806
      vertex 0.067000001668930054 -0.025499999523162842 0.017500000074505806
    endloop
  endfacet
  facet normal 0 -0 1
    outer loop
      vertex 0.054499998688697815 -0.035500001162290573 0.017500000074505806
      vertex 0.041999999433755875 -0.025499999523162842 0.017500000074505806
      vertex 0.041999999433755875 -0.035500001162290573 0.017500000074505806
    endloop
  endfacet
  facet normal -0 0 1
    outer loop
      vertex 0.054499998688697815 -0.035500001162290573 0.017500000074505806
      vertex 0.067000001668930054 -0.035500001162290573 0.017500000074505806
      vertex 0.067000001668930054 -0.025499999523162842 0.017500000074505806
    endloop
  endfacet
  facet normal -1 0 0
    outer loop
      vertex 0.041999999433755875 -0.025499999523162842 -0.017500000074505806
      vertex 0.041999999433755875 -0.035500001162290573 -0.017500000074505806
      vertex 0.041999999433755875 -0.035500001162290573 0
    endloop
  endfacet
  facet normal -1 0 -0
    outer loop
      vertex 0.041999999433755875 -0.025499999523162842 0.017500000074505806
      vertex 0.041999999433755875 -0.025499999523162842 -0.017500000074505806
      vertex 0.041999999433755875 -0.035500001162290573 0
    endloop
  endfacet
  facet normal -1 -0 0
    outer loop
      vertex 0.041999999433755875 -0.025499999523162842 -0.017500000074505806
      vertex 0.041999999433755875 -0.025499999523162842 0.017500000074505806
      vertex 0.041999999433755875 -0.01549999974668026 0
    endloop
  endfacet
  facet normal -1 0 -0
    outer loop
      vertex 0.041999999433755875 -0.025499999523162842 0.017500000074505806
      vertex 0.041999999433755875 -0.035500001162290573 0
      vertex 0.041999999433755875 -0.035500001162290573 0.017500000074505806
    endloop
  endfacet
  facet normal 1 -0 -0
    outer loop
      vertex 0.067000001668930054 -0.025499999523162842 -0.017500000074505806
      vertex 0.067000001668930054 -0.035500001162290573 0
      vertex 0.067000001668930054 -0.035500001162290573 -0.017500000074505806
    endloop
  endfacet
  facet normal 1 0 -0
    outer loop
      vertex 0.067000001668930054 -0.025499999523162842 0.017500000074505806
      vertex 0.067000001668930054 -0.035500001162290573 0
      vertex 0.067000001668930054 -0.025499999523162842 -0.017500000074505806
    endloop
  endfacet
  facet normal 1 -0 0
    outer loop
      vertex 0.067000001668930054 -0.025499999523162842 -0.017500000074505806
      vertex 0.067000001668930054 -0.01549999974668026 0
      vertex 0.067000001668930054 -0.025499999523162842 0.017500000074505806
    endloop
  endfacet
  facet normal 1 -0 0
    outer loop
      vertex 0.067000001668930054 -0.025499999523162842 0.017500000074505806
      vertex 0.067000001668930054 -0.035500001162290573 0.017500000074505806
      vertex 0.067000001668930054 -0.035500001162290573 0
    endloop
  endfacet
  facet normal 0 -1 0
    outer loop
      vertex 0.068000003695487976 -0.01549999974668026 -0.021500000730156898
      vertex 0.054499998688697815 -0.01549999974668026 -0.017500000074505806
      vertex 0.039000000804662704 -0.01549999974668026 -0.021500000730156898
    endloop
  endfacet
  facet normal 0 -1 -0
    outer loop
      vertex 0.067000001668930054 -0.01549999974668026 -0.017500000074505806
      vertex 0.054499998688697815 -0.01549999974668026 -0.017500000074505806
      vertex 0.068000003695487976 -0.01549999974668026 -0.021500000730156898
    endloop
  endfacet
  facet normal 0 -1 -0
    outer loop
      vertex 0.039000000804662704 -0.01549999974668026 -0.021500000730156898
      vertex 0.054499998688697815 -0.01549999974668026 -0.017500000074505806
      vertex 0.041999999433755875 -0.01549999974668026 -0.017500000074505806
    endloop
  endfacet
  facet normal -0 -1 0
    outer loop
      vertex 0.041999999433755875 -0.01549999974668026 -0.017500000074505806
      vertex 0.041999999433755875 -0.01549999974668026 -0.017263548448681831
      vertex 0.039000000804662704 -0.01549999974668026 -0.021500000730156898
    endloop
  endfacet
  facet normal -0 -1 0
    outer loop
      vertex 0.067000001668930054 -0.01549999974668026 -0.017500000074505806
      vertex 0.068000003695487976 -0.01549999974668026 -0.021500000730156898
      vertex 0.067000001668930054 -0.01549999974668026 0
    endloop
  endfacet
  facet normal -0 -1 0
    outer loop
      vertex 0.068000003695487976 -0.01549999974668026 0.019452385604381561
      vertex 0.067000001668930054 -0.01549999974668026 0.017500000074505806
      vertex 0.067000001668930054 -0.01549999974668026 0
    endloop
  endfacet
  facet normal 0 -1 0
    outer loop
      vertex 0.068000003695487976 -0.01549999974668026 -0.021500000730156898
      vertex 0.068000003695487976 -0.01549999974668026 0.019452385604381561
      vertex 0.067000001668930054 -0.01549999974668026 0
    endloop
  endfacet
  facet normal 0 -1 0
    outer loop
      vertex 0.067000001668930054 -0.01549999974668026 0.017500000074505806
      vertex 0.068000003695487976 -0.01549999974668026 0.019452385604381561
      vertex 0.066617444157600403 -0.01549999974668026 0.017500000074505806
    endloop
  endfacet
  facet normal -0 -1 -0
    outer loop
      vertex 0.041999999433755875 -0.01549999974668026 0.017500000074505806
      vertex 0.054499998688697815 -0.01549999974668026 0.017500000074505806
      vertex 0.039000000804662704 -0.01549999974668026 0.021500000730156898
    endloop
  endfacet
  facet normal 0 -1 0
    outer loop
      vertex 0.068000003695487976 -0.01549999974668026 0.019452385604381561
      vertex 0.039000000804662704 -0.01549999974668026 0.021500000730156898
      vertex 0.054499998688697815 -0.01549999974668026 0.017500000074505806
    endloop
  endfacet
  facet normal 0 -1 -0
    outer loop
      vertex 0.054499998688697815 -0.01549999974668026 0.017500000074505806
      vertex 0.066617444157600403 -0.01549999974668026 0.017500000074505806
      vertex 0.068000003695487976 -0.01549999974668026 0.019452385604381561
    endloop
  endfacet
  facet normal 0 -1 0
    outer loop
      vertex 0.041999999433755875 -0.01549999974668026 0.017500000074505806
      vertex 0.039000000804662704 -0.01549999974668026 0.021500000730156898
      vertex 0.041999999433755875 -0.01549999974668026 0
    endloop
  endfacet
  facet normal -0 -1 -0
    outer loop
      vertex 0.039000000804662704 -0.01549999974668026 0.021500000730156898
      vertex 0.039000000804662704 -0.01549999974668026 -0.021500000730156898
      vertex 0.041999999433755875 -0.01549999974668026 0
    endloop
  endfacet
  facet normal -0 -1 0
    outer loop
      vertex 0.041999999433755875 -0.01549999974668026 0
      vertex 0.039000000804662704 -0.01549999974668026 -0.021500000730156898
      vertex 0.041999999433755875 -0.01549999974668026 -0.017263548448681831
    endloop
  endfacet
  facet normal 0 0 1
    outer loop
      vertex 0.004999999888241291 0.039000000804662704 0.039000000804662704
      vertex 0 -0.039000000804662704 0.039000000804662704
      vertex 0.004999999888241291 -0.039000000804662704 0.039000000804662704
    endloop
  endfacet
  facet normal 0 1 0
    outer loop
      vertex 0.004999999888241291 0.039000000804662704 -0.039000000804662704
      vertex 0 0.039000000804662704 0.039000000804662704
      vertex 0.004999999888241291 0.039000000804662704 0.039000000804662704
    endloop
  endfacet
  facet normal -0 0 -1
    outer loop
      vertex 0.004999999888241291 -0.039000000804662704 -0.039000000804662704
      vertex 0 0.039000000804662704 -0.039000000804662704
      vertex 0.004999999888241291 0.039000000804662704 -0.039000000804662704
    endloop
  endfacet
  facet normal -0 -1 0
    outer loop
      vertex 0.004999999888241291 -0.039000000804662704 0.039000000804662704
      vertex 0 -0.039000000804662704 -0.039000000804662704
      vertex 0.004999999888241291 -0.039000000804662704 -0.039000000804662704
    endloop
  endfacet
  facet normal -1 0 -0
    outer loop
      vertex 0 0.039000000804662704 0.039000000804662704
      vertex 0 -0.039000000804662704 -0.039000000804662704
      vertex 0 -0.039000000804662704 0.039000000804662704
    endloop
  endfacet
  facet normal -0 -1 0
    outer loop
      vertex 0.039000000804662704 -0.039000000804662704 0.039000000804662704
      vertex 0.034000001847743988 -0.039000000804662704 -0.039000000804662704
      vertex 0.039000000804662704 -0.039000000804662704 -0.039000000804662704
    endloop
  endfacet
  facet normal -0 0 -1
    outer loop
      vertex 0.039000000804662704 -0.039000000804662704 -0.039000000804662704
      vertex 0.034000001847743988 0.039000000804662704 -0.039000000804662704
      vertex 0.039000000804662704 0.039000000804662704 -0.039000000804662704
    endloop
  endfacet
  facet normal 0 1 0
    outer loop
      vertex 0.039000000804662704 0.039000000804662704 -0.039000000804662704
      vertex 0.034000001847743988 0.039000000804662704 0.039000000804662704
      vertex 0.039000000804662704 0.039000000804662704 0.039000000804662704
    endloop
  endfacet
  facet normal 0 0 1
    outer loop
      vertex 0.039000000804662704 0.039000000804662704 0.039000000804662704
      vertex 0.034000001847743988 -0.039000000804662704 0.039000000804662704
      vertex 0.039000000804662704 -0.039000000804662704 0.039000000804662704
    endloop
  endfacet
  facet normal 1 0 -0
    outer loop
      vertex 0.039000000804662704 0.039000000804662704 0.039000000804662704
      vertex 0.039000000804662704 0.01549999974668026 -0.021500000730156898
      vertex 0.039000000804662704 0.039000000804662704 -0.039000000804662704
    endloop
  endfacet
  facet normal 1 0 0
    outer loop
      vertex 0.039000000804662704 -0.01549999974668026 -0.021500000730156898
      vertex 0.039000000804662704 0.039000000804662704 -0.039000000804662704
      vertex 0.039000000804662704 0.01549999974668026 -0.021500000730156898
    endloop
  endfacet
  facet normal 1 0 0
    outer loop
      vertex 0.039000000804662704 -0.01549999974668026 0.021500000730156898
      vertex 0.039000000804662704 -0.039000000804662704 -0.039000000804662704
      vertex 0.039000000804662704 -0.01549999974668026 -0.021500000730156898
    endloop
  endfacet
  facet normal 1 -0 -0
    outer loop
      vertex 0.039000000804662704 0.039000000804662704 -0.039000000804662704
      vertex 0.039000000804662704 -0.01549999974668026 -0.021500000730156898
      vertex 0.039000000804662704 -0.039000000804662704 -0.039000000804662704
    endloop
  endfacet
  facet normal 1 0 0
    outer loop
      vertex 0.039000000804662704 -0.01549999974668026 0.021500000730156898
      vertex 0.039000000804662704 0.01549999974668026 0.021500000730156898
      vertex 0.039000000804662704 0.039000000804662704 0.039000000804662704
    endloop
  endfacet
  facet normal 1 -0 0
    outer loop
      vertex 0.039000000804662704 0.01549999974668026 -0.021500000730156898
      vertex 0.039000000804662704 0.039000000804662704 0.039000000804662704
      vertex 0.039000000804662704 0.01549999974668026 0.021500000730156898
    endloop
  endfacet
  facet normal 1 0 -0
    outer loop
      vertex 0.039000000804662704 0.039000000804662704 0.039000000804662704
      vertex 0.039000000804662704 -0.039000000804662704 0.039000000804662704
      vertex 0.039000000804662704 -0.01549999974668026 0.021500000730156898
    endloop
  endfacet
  facet normal 1 -0 0
    outer loop
      vertex 0.039000000804662704 -0.039000000804662704 -0.039000000804662704
      vertex 0.039000000804662704 -0.01549999974668026 0.021500000730156898
      vertex 0.039000000804662704 -0.039000000804662704 0.039000000804662704
    endloop
  endfacet
  facet normal 1 -0 0
    outer loop
      vertex 0.004999999888241291 -0.032999999821186066 -0.029999999329447746
      vertex 0.004999999888241291 -0.039000000804662704 0.039000000804662704
      vertex 0.004999999888241291 -0.039000000804662704 -0.039000000804662704
    endloop
  endfacet
  facet normal 1 -0 0
    outer loop
      vertex 0.004999999888241291 -0.039000000804662704 -0.039000000804662704
      vertex 0.004999999888241291 0.039000000804662704 -0.039000000804662704
      vertex 0.004999999888241291 0.032999999821186066 -0.029999999329447746
    endloop
  endfacet
  facet normal 1 -0 0
    outer loop
      vertex 0.004999999888241291 -0.032999999821186066 -0.029999999329447746
      vertex 0.004999999888241291 -0.032999999821186066 0.029999999329447746
      vertex 0.004999999888241291 -0.039000000804662704 0.039000000804662704
    endloop
  endfacet
  facet normal 1 0 -0
    outer loop
      vertex 0.004999999888241291 -0.032999999821186066 -0.029999999329447746
      vertex 0.004999999888241291 -0.039000000804662704 -0.039000000804662704
      vertex 0.004999999888241291 0.032999999821186066 -0.029999999329447746
    endloop
  endfacet
  facet normal 1 0 0
    outer loop
      vertex 0.004999999888241291 0.032999999821186066 -0.029999999329447746
      vertex 0.004999999888241291 0.039000000804662704 -0.039000000804662704
      vertex 0.004999999888241291 0.032999999821186066 0.029999999329447746
    endloop
  endfacet
  facet normal 1 0 0
    outer loop
      vertex 0.004999999888241291 -0.039000000804662704 0.039000000804662704
      vertex 0.004999999888241291 -0.032999999821186066 0.029999999329447746
      vertex 0.004999999888241291 0.039000000804662704 0.039000000804662704
    endloop
  endfacet
  facet normal 1 -0 -0
    outer loop
      vertex 0.004999999888241291 0.039000000804662704 -0.039000000804662704
      vertex 0.004999999888241291 0.039000000804662704 0.039000000804662704
      vertex 0.004999999888241291 0.032999999821186066 0.029999999329447746
    endloop
  endfacet
  facet normal 1 0 0
    outer loop
      vertex 0.004999999888241291 -0.032999999821186066 0.029999999329447746
      vertex 0.004999999888241291 0.032999999821186066 0.029999999329447746
      vertex 0.004999999888241291 0.039000000804662704 0.039000000804662704
    endloop
  endfacet
  facet normal -0 0 1
    outer loop
      vertex 0.004999999888241291 0.039000000804662704 0.039000000804662704
      vertex 0 0.039000000804662704 0.039000000804662704
      vertex 0 -0.039000000804662704 0.039000000804662704
    endloop
  endfacet
  facet normal -0 1 -0
    outer loop
      vertex 0.004999999888241291 0.039000000804662704 -0.039000000804662704
      vertex 0 0.039000000804662704 -0.039000000804662704
      vertex 0 0.039000000804662704 0.039000000804662704
    endloop
  endfacet
  facet normal 0 0 -1
    outer loop
      vertex 0.004999999888241291 -0.039000000804662704 -0.039000000804662704
      vertex 0 -0.039000000804662704 -0.039000000804662704
      vertex 0 0.039000000804662704 -0.039000000804662704
    endloop
  endfacet
  facet normal 0 -1 -0
    outer loop
      vertex 0.004999999888241291 -0.039000000804662704 0.039000000804662704
      vertex 0 -0.039000000804662704 0.039000000804662704
      vertex 0 -0.039000000804662704 -0.039000000804662704
    endloop
  endfacet
  facet normal -1 -0 0
    outer loop
      vertex 0 0.039000000804662704 0.039000000804662704
      vertex 0 0.039000000804662704 -0.039000000804662704
      vertex 0 -0.039000000804662704 -0.039000000804662704
    endloop
  endfacet
  facet normal 0 0 1
    outer loop
      vertex 0.034000001847743988 0.029857141897082329 0.029999999329447746
      vertex 0.004999999888241291 -0.032999999821186066 0.029999999329447746
      vertex 0.034000001847743988 -0.032999999821186066 0.029999999329447746
    endloop
  endfacet
  facet normal -0 0 1
    outer loop
      vertex 0.034000001847743988 0.029857141897082329 0.029999999329447746
      vertex 0.004999999888241291 0.032999999821186066 0.029999999329447746
      vertex 0.004999999888241291 -0.032999999821186066 0.029999999329447746
    endloop
  endfacet
  facet normal 0 0 1
    outer loop
      vertex 0.004999999888241291 0.032999999821186066 0.029999999329447746
      vertex 0.034000001847743988 0.029857141897082329 0.029999999329447746
      vertex 0.034000001847743988 0.032999999821186066 0.029999999329447746
    endloop
  endfacet
  facet normal -0 1 -0
    outer loop
      vertex 0.004999999888241291 0.032999999821186066 0.029999999329447746
      vertex 0.034000001847743988 0.032999999821186066 0.027142856270074844
      vertex 0.004999999888241291 0.032999999821186066 -0.029999999329447746
    endloop
  endfacet
  facet normal 0 1 -0
    outer loop
      vertex 0.034000001847743988 0.032999999821186066 0.029999999329447746
      vertex 0.034000001847743988 0.032999999821186066 0.027142856270074844
      vertex 0.004999999888241291 0.032999999821186066 0.029999999329447746
    endloop
  endfacet
  facet normal -0 1 0
    outer loop
      vertex 0.034000001847743988 0.032999999821186066 0.027142856270074844
      vertex 0.034000001847743988 0.032999999821186066 -0.029999999329447746
      vertex 0.004999999888241291 0.032999999821186066 -0.029999999329447746
    endloop
  endfacet
  facet normal -0 0 -1
    outer loop
      vertex 0.034000001847743988 -0.029857141897082329 -0.029999999329447746
      vertex 0.004999999888241291 0.032999999821186066 -0.029999999329447746
      vertex 0.034000001847743988 0.032999999821186066 -0.029999999329447746
    endloop
  endfacet
  facet normal 0 0 -1
    outer loop
      vertex 0.034000001847743988 -0.029857141897082329 -0.029999999329447746
      vertex 0.004999999888241291 -0.032999999821186066 -0.029999999329447746
      vertex 0.004999999888241291 0.032999999821186066 -0.029999999329447746
    endloop
  endfacet
  facet normal 0 0 -1
    outer loop
      vertex 0.004999999888241291 -0.032999999821186066 -0.029999999329447746
      vertex 0.034000001847743988 -0.029857141897082329 -0.029999999329447746
      vertex 0.034000001847743988 -0.032999999821186066 -0.029999999329447746
    endloop
  endfacet
  facet normal 0 -1 -0
    outer loop
      vertex 0.004999999888241291 -0.032999999821186066 -0.029999999329447746
      vertex 0.034000001847743988 -0.032999999821186066 -0.027142856270074844
      vertex 0.004999999888241291 -0.032999999821186066 0.029999999329447746
    endloop
  endfacet
  facet normal 0 -1 -0
    outer loop
      vertex 0.034000001847743988 -0.032999999821186066 -0.029999999329447746
      vertex 0.034000001847743988 -0.032999999821186066 -0.027142856270074844
      vertex 0.004999999888241291 -0.032999999821186066 -0.029999999329447746
    endloop
  endfacet
  facet normal 0 -1 0
    outer loop
      vertex 0.034000001847743988 -0.032999999821186066 -0.027142856270074844
      vertex 0.034000001847743988 -0.032999999821186066 0.029999999329447746
      vertex 0.004999999888241291 -0.032999999821186066 0.029999999329447746
    endloop
  endfacet
  facet normal 0 -1 -0
    outer loop
      vertex 0.039000000804662704 -0.039000000804662704 0.039000000804662704
      vertex 0.034000001847743988 -0.039000000804662704 0.039000000804662704
      vertex 0.034000001847743988 -0.039000000804662704 -0.039000000804662704
    endloop
  endfacet
  facet normal 0 0 -1
    outer loop
      vertex 0.039000000804662704 -0.039000000804662704 -0.039000000804662704
      vertex 0.034000001847743988 -0.039000000804662704 -0.039000000804662704
      vertex 0.034000001847743988 0.039000000804662704 -0.039000000804662704
    endloop
  endfacet
  facet normal -0 1 -0
    outer loop
      vertex 0.039000000804662704 0.039000000804662704 -0.039000000804662704
      vertex 0.034000001847743988 0.039000000804662704 -0.039000000804662704
      vertex 0.034000001847743988 0.039000000804662704 0.039000000804662704
    endloop
  endfacet
  facet normal -0 0 1
    outer loop
      vertex 0.039000000804662704 0.039000000804662704 0.039000000804662704
      vertex 0.034000001847743988 0.039000000804662704 0.039000000804662704
      vertex 0.034000001847743988 -0.039000000804662704 0.039000000804662704
    endloop
  endfacet
  facet normal -1 -0 -0
    outer loop
      vertex 0.034000001847743988 0.032999999821186066 -0.029999999329447746
      vertex 0.034000001847743988 0.032999999821186066 0.027142856270074844
      vertex 0.034000001847743988 0.039000000804662704 -0.039000000804662704
    endloop
  endfacet
  facet normal -1 0 -0
    outer loop
      vertex 0.034000001847743988 0.039000000804662704 0.039000000804662704
      vertex 0.034000001847743988 0.039000000804662704 -0.039000000804662704
      vertex 0.034000001847743988 0.032999999821186066 0.027142856270074844
    endloop
  endfacet
  facet normal -1 0 0
    outer loop
      vertex 0.034000001847743988 -0.029857141897082329 -0.029999999329447746
      vertex 0.034000001847743988 0.032999999821186066 -0.029999999329447746
      vertex 0.034000001847743988 0.039000000804662704 -0.039000000804662704
    endloop
  endfacet
  facet normal -1 0 0
    outer loop
      vertex 0.034000001847743988 0.029857141897082329 0.029999999329447746
      vertex 0.034000001847743988 0.039000000804662704 0.039000000804662704
      vertex 0.034000001847743988 0.032999999821186066 0.029999999329447746
    endloop
  endfacet
  facet normal -1 -0 0
    outer loop
      vertex 0.034000001847743988 0.032999999821186066 0.027142856270074844
      vertex 0.034000001847743988 0.032999999821186066 0.029999999329447746
      vertex 0.034000001847743988 0.039000000804662704 0.039000000804662704
    endloop
  endfacet
  facet normal -1 0 0
    outer loop
      vertex 0.034000001847743988 -0.039000000804662704 0.039000000804662704
      vertex 0.034000001847743988 0.039000000804662704 0.039000000804662704
      vertex 0.034000001847743988 0.029857141897082329 0.029999999329447746
    endloop
  endfacet
  facet normal -1 0 -0
    outer loop
      vertex 0.034000001847743988 -0.032999999821186066 -0.029999999329447746
      vertex 0.034000001847743988 -0.029857141897082329 -0.029999999329447746
      vertex 0.034000001847743988 -0.039000000804662704 -0.039000000804662704
    endloop
  endfacet
  facet normal -1 -0 -0
    outer loop
      vertex 0.034000001847743988 0.039000000804662704 -0.039000000804662704
      vertex 0.034000001847743988 -0.039000000804662704 -0.039000000804662704
      vertex 0.034000001847743988 -0.029857141897082329 -0.029999999329447746
    endloop
  endfacet
  facet normal -1 0 0
    outer loop
      vertex 0.034000001847743988 -0.032999999821186066 -0.027142856270074844
      vertex 0.034000001847743988 -0.032999999821186066 -0.029999999329447746
      vertex 0.034000001847743988 -0.039000000804662704 -0.039000000804662704
    endloop
  endfacet
  facet normal -1 0 0
    outer loop
      vertex 0.034000001847743988 -0.032999999821186066 -0.027142856270074844
      vertex 0.034000001847743988 -0.039000000804662704 0.039000000804662704
      vertex 0.034000001847743988 -0.032999999821186066 0.029999999329447746
    endloop
  endfacet
  facet normal -1 0 -0
    outer loop
      vertex 0.034000001847743988 0.029857141897082329 0.029999999329447746
      vertex 0.034000001847743988 -0.032999999821186066 0.029999999329447746
      vertex 0.034000001847743988 -0.039000000804662704 0.039000000804662704
    endloop
  endfacet
  facet normal -1 -0 0
    outer loop
      vertex 0.034000001847743988 -0.039000000804662704 -0.039000000804662704
      vertex 0.034000001847743988 -0.039000000804662704 0.039000000804662704
      vertex 0.034000001847743988 -0.032999999821186066 -0.027142856270074844
    endloop
  endfacet
  facet normal 0 0 1
    outer loop
      vertex 0.068000003695487976 0.014023812487721443 0.021500000730156898
      vertex 0.068000003695487976 0.01549999974668026 0.021500000730156898
      vertex 0.039000000804662704 0.01549999974668026 0.021500000730156898
    endloop
  endfacet
  facet normal -0 0 1
    outer loop
      vertex 0.039000000804662704 -0.01549999974668026 0.021500000730156898
      vertex 0.068000003695487976 0.014023812487721443 0.021500000730156898
      vertex 0.039000000804662704 0.01549999974668026 0.021500000730156898
    endloop
  endfacet
  facet normal 0 0 1
    outer loop
      vertex 0.068000003695487976 0.014023812487721443 0.021500000730156898
      vertex 0.039000000804662704 -0.01549999974668026 0.021500000730156898
      vertex 0.068000003695487976 -0.01549999974668026 0.021500000730156898
    endloop
  endfacet
  facet normal -0 1 0
    outer loop
      vertex 0.069449998438358307 0.01549999974668026 0.021500000730156898
      vertex 0.069449998438358307 0.01549999974668026 -0.021500000730156898
      vertex 0.068000003695487976 0.01549999974668026 -0.019452385604381561
    endloop
  endfacet
  facet normal 0 1 -0
    outer loop
      vertex 0.068000003695487976 0.01549999974668026 -0.019452385604381561
      vertex 0.068000003695487976 0.01549999974668026 0.021500000730156898
      vertex 0.069449998438358307 0.01549999974668026 0.021500000730156898
    endloop
  endfacet
  facet normal 0 1 0
    outer loop
      vertex 0.068000003695487976 0.01549999974668026 -0.019452385604381561
      vertex 0.039000000804662704 0.01549999974668026 0.021500000730156898
      vertex 0.068000003695487976 0.01549999974668026 0.021500000730156898
    endloop
  endfacet
  facet normal 0 1 -0
    outer loop
      vertex 0.068000003695487976 0.01549999974668026 -0.019452385604381561
      vertex 0.068000003695487976 0.01549999974668026 -0.021500000730156898
      vertex 0.039000000804662704 0.01549999974668026 -0.021500000730156898
    endloop
  endfacet
  facet normal -0 1 -0
    outer loop
      vertex 0.069449998438358307 0.01549999974668026 -0.021500000730156898
      vertex 0.068000003695487976 0.01549999974668026 -0.021500000730156898
      vertex 0.068000003695487976 0.01549999974668026 -0.019452385604381561
    endloop
  endfacet
  facet normal -0 1 -0
    outer loop
      vertex 0.039000000804662704 0.01549999974668026 0.021500000730156898
      vertex 0.068000003695487976 0.01549999974668026 -0.019452385604381561
      vertex 0.039000000804662704 0.01549999974668026 -0.021500000730156898
    endloop
  endfacet
  facet normal -0 0 -1
    outer loop
      vertex 0.068000003695487976 -0.014023812487721443 -0.021500000730156898
      vertex 0.068000003695487976 -0.01549999974668026 -0.021500000730156898
      vertex 0.039000000804662704 -0.01549999974668026 -0.021500000730156898
    endloop
  endfacet
  facet normal 0 0 -1
    outer loop
      vertex 0.039000000804662704 0.01549999974668026 -0.021500000730156898
      vertex 0.068000003695487976 -0.014023812487721443 -0.021500000730156898
      vertex 0.039000000804662704 -0.01549999974668026 -0.021500000730156898
    endloop
  endfacet
  facet normal -0 0 -1
    outer loop
      vertex 0.068000003695487976 -0.014023812487721443 -0.021500000730156898
      vertex 0.039000000804662704 0.01549999974668026 -0.021500000730156898
      vertex 0.068000003695487976 0.01549999974668026 -0.021500000730156898
    endloop
  endfacet
  facet normal 0 -1 0
    outer loop
      vertex 0.069449998438358307 -0.01549999974668026 -0.021500000730156898
      vertex 0.069449998438358307 -0.01549999974668026 0.021500000730156898
      vertex 0.068000003695487976 -0.01549999974668026 0.019452385604381561
    endloop
  endfacet
  facet normal -0 -1 -0
    outer loop
      vertex 0.068000003695487976 -0.01549999974668026 0.019452385604381561
      vertex 0.068000003695487976 -0.01549999974668026 -0.021500000730156898
      vertex 0.069449998438358307 -0.01549999974668026 -0.021500000730156898
    endloop
  endfacet
  facet normal -0 -1 -0
    outer loop
      vertex 0.068000003695487976 -0.01549999974668026 0.019452385604381561
      vertex 0.068000003695487976 -0.01549999974668026 0.021500000730156898
      vertex 0.039000000804662704 -0.01549999974668026 0.021500000730156898
    endloop
  endfacet
  facet normal 0 -1 -0
    outer loop
      vertex 0.069449998438358307 -0.01549999974668026 0.021500000730156898
      vertex 0.068000003695487976 -0.01549999974668026 0.021500000730156898
      vertex 0.068000003695487976 -0.01549999974668026 0.019452385604381561
    endloop
  endfacet
  facet normal 0 0 -1
    outer loop
      vertex 0.085000000894069672 -0.01549999974668026 -0.032499998807907104
      vertex 0.068000003695487976 -0.01549999974668026 -0.032499998807907104
      vertex 0.068000003695487976 0.01549999974668026 -0.032499998807907104
    endloop
  endfacet
  facet normal -0 0 1
    outer loop
      vertex 0.085000000894069672 0.01549999974668026 0.032499998807907104
      vertex 0.068000003695487976 0.01549999974668026 0.032499998807907104
      vertex 0.068000003695487976 -0.01549999974668026 0.032499998807907104
    endloop
  endfacet
  facet normal -1 -0 0
    outer loop
      vertex 0.068000003695487976 0.014023812487721443 0.021500000730156898
      vertex 0.068000003695487976 0.01549999974668026 0.032499998807907104
      vertex 0.068000003695487976 0.01549999974668026 0.021500000730156898
    endloop
  endfacet
  facet normal -1 0 0
    outer loop
      vertex 0.068000003695487976 -0.01549999974668026 0.032499998807907104
      vertex 0.068000003695487976 0.01549999974668026 0.032499998807907104
      vertex 0.068000003695487976 0.014023812487721443 0.021500000730156898
    endloop
  endfacet
  facet normal -1 -0 -0
    outer loop
      vertex 0.068000003695487976 0.014023812487721443 0.021500000730156898
      vertex 0.068000003695487976 -0.01549999974668026 0.021500000730156898
      vertex 0.068000003695487976 -0.01549999974668026 0.032499998807907104
    endloop
  endfacet
  facet normal -1 0 0
    outer loop
      vertex 0.068000003695487976 -0.014023812487721443 -0.021500000730156898
      vertex 0.068000003695487976 0.01549999974668026 -0.021500000730156898
      vertex 0.068000003695487976 0.01549999974668026 -0.032499998807907104
    endloop
  endfacet
  facet normal -1 -0 0
    outer loop
      vertex 0.068000003695487976 -0.01549999974668026 -0.021500000730156898
      vertex 0.068000003695487976 -0.014023812487721443 -0.021500000730156898
      vertex 0.068000003695487976 -0.01549999974668026 -0.032499998807907104
    endloop
  endfacet
  facet normal -1 -0 -0
    outer loop
      vertex 0.068000003695487976 0.01549999974668026 -0.032499998807907104
      vertex 0.068000003695487976 -0.01549999974668026 -0.032499998807907104
      vertex 0.068000003695487976 -0.014023812487721443 -0.021500000730156898
    endloop
  endfacet
  facet normal 0 -1 0
    outer loop
      vertex 0.069449998438358307 -0.01549999974668026 0.021500000730156898
      vertex 0.068000003695487976 -0.01549999974668026 0.032499998807907104
      vertex 0.068000003695487976 -0.01549999974668026 0.021500000730156898
    endloop
  endfacet
  facet normal 0 -1 0
    outer loop
      vertex 0.085000000894069672 -0.01549999974668026 -0.032499998807907104
      vertex 0.085000000894069672 -0.01549999974668026 0.032499998807907104
      vertex 0.069449998438358307 -0.01549999974668026 0.021500000730156898
    endloop
  endfacet
  facet normal -0 -1 -0
    outer loop
      vertex 0.068000003695487976 -0.01549999974668026 0.032499998807907104
      vertex 0.069449998438358307 -0.01549999974668026 0.021500000730156898
      vertex 0.085000000894069672 -0.01549999974668026 0.032499998807907104
    endloop
  endfacet
  facet normal 0 -1 0
    outer loop
      vertex 0.068000003695487976 -0.01549999974668026 -0.032499998807907104
      vertex 0.069449998438358307 -0.01549999974668026 -0.021500000730156898
      vertex 0.068000003695487976 -0.01549999974668026 -0.021500000730156898
    endloop
  endfacet
  facet normal 0 -1 0
    outer loop
      vertex 0.069449998438358307 -0.01549999974668026 -0.021500000730156898
      vertex 0.068000003695487976 -0.01549999974668026 -0.032499998807907104
      vertex 0.085000000894069672 -0.01549999974668026 -0.032499998807907104
    endloop
  endfacet
  facet normal -0 -1 0
    outer loop
      vertex 0.069449998438358307 -0.01549999974668026 0.021500000730156898
      vertex 0.069449998438358307 -0.01549999974668026 -0.021500000730156898
      vertex 0.085000000894069672 -0.01549999974668026 -0.032499998807907104
    endloop
  endfacet
  facet normal -0 1 0
    outer loop
      vertex 0.069449998438358307 0.01549999974668026 -0.021500000730156898
      vertex 0.068000003695487976 0.01549999974668026 -0.032499998807907104
      vertex 0.068000003695487976 0.01549999974668026 -0.021500000730156898
    endloop
  endfacet
  facet normal -0 1 0
    outer loop
      vertex 0.069449998438358307 0.01549999974668026 0.021500000730156898
      vertex 0.085000000894069672 0.01549999974668026 -0.032499998807907104
      vertex 0.069449998438358307 0.01549999974668026 -0.021500000730156898
    endloop
  endfacet
  facet normal 0 1 -0
    outer loop
      vertex 0.068000003695487976 0.01549999974668026 -0.032499998807907104
      vertex 0.069449998438358307 0.01549999974668026 -0.021500000730156898
      vertex 0.085000000894069672 0.01549999974668026 -0.032499998807907104
    endloop
  endfacet
  facet normal -0 1 0
    outer loop
      vertex 0.068000003695487976 0.01549999974668026 0.032499998807907104
      vertex 0.069449998438358307 0.01549999974668026 0.021500000730156898
      vertex 0.068000003695487976 0.01549999974668026 0.021500000730156898
    endloop
  endfacet
  facet normal -0 1 0
    outer loop
      vertex 0.069449998438358307 0.01549999974668026 0.021500000730156898
      vertex 0.068000003695487976 0.01549999974668026 0.032499998807907104
      vertex 0.085000000894069672 0.01549999974668026 0.032499998807907104
    endloop
  endfacet
  facet normal 0 1 0
    outer loop
      vertex 0.085000000894069672 0.01549999974668026 -0.032499998807907104
      vertex 0.069449998438358307 0.01549999974668026 0.021500000730156898
      vertex 0.085000000894069672 0.01549999974668026 0.032499998807907104
    endloop
  endfacet
  facet normal -0 0 1
    outer loop
      vertex 0.068000003695487976 -0.01549999974668026 0.032499998807907104
      vertex 0.085000000894069672 0.0070000002160668373 0.032499998807907104
      vertex 0.085000000894069672 0.01549999974668026 0.032499998807907104
    endloop
  endfacet
  facet normal 0 0 1
    outer loop
      vertex 0.068000003695487976 -0.01549999974668026 0.032499998807907104
      vertex 0.085000000894069672 0.0032307708170264959 0.032499998807907104
      vertex 0.085000000894069672 0.0070000002160668373 0.032499998807907104
    endloop
  endfacet
  facet normal 0 0 1
    outer loop
      vertex 0.085000000894069672 -0.01549999974668026 0.032499998807907104
      vertex 0.085000000894069672 -0.0070000002160668373 0.032499998807907104
      vertex 0.068000003695487976 -0.01549999974668026 0.032499998807907104
    endloop
  endfacet
  facet normal 0 0 1
    outer loop
      vertex 0.085000000894069672 0.0032307708170264959 0.032499998807907104
      vertex 0.068000003695487976 -0.01549999974668026 0.032499998807907104
      vertex 0.085000000894069672 -0.0070000002160668373 0.032499998807907104
    endloop
  endfacet
  facet normal 1 -0 0
    outer loop
      vertex 0.085000000894069672 0.0070000002160668373 0.028999999165534973
      vertex 0.085000000894069672 0.01549999974668026 0.032499998807907104
      vertex 0.085000000894069672 0.0070000002160668373 0.032499998807907104
    endloop
  endfacet
  facet normal 1 0 -0
    outer loop
      vertex 0.085000000894069672 0.01549999974668026 0.032499998807907104
      vertex 0.085000000894069672 0.0070000002160668373 0.028999999165534973
      vertex 0.085000000894069672 0.0070000002160668373 0.016000000759959221
    endloop
  endfacet
  facet normal 1 -0 0
    outer loop
      vertex 0.085000000894069672 -0.01549999974668026 -0.032499998807907104
      vertex 0.085000000894069672 0.01549999974668026 0.032499998807907104
      vertex 0.085000000894069672 0.0070000002160668373 0.016000000759959221
    endloop
  endfacet
  facet normal 1 0 0
    outer loop
      vertex 0.085000000894069672 -0.0070000002160668373 0.028999999165534973
      vertex 0.085000000894069672 -0.0070000002160668373 0.032499998807907104
      vertex 0.085000000894069672 -0.01549999974668026 0.032499998807907104
    endloop
  endfacet
  facet normal 1 0 0
    outer loop
      vertex 0.085000000894069672 -0.0070000002160668373 0.028999999165534973
      vertex 0.085000000894069672 -0.01549999974668026 0.032499998807907104
      vertex 0.085000000894069672 -0.0070000002160668373 0.016000000759959221
    endloop
  endfacet
  facet normal 1 -0 0
    outer loop
      vertex 0.085000000894069672 -0.01549999974668026 -0.032499998807907104
      vertex 0.085000000894069672 -0.0070000002160668373 0.016000000759959221
      vertex 0.085000000894069672 -0.01549999974668026 0.032499998807907104
    endloop
  endfacet
  facet normal 1 -0 0
    outer loop
      vertex 0.085000000894069672 0.0070000002160668373 0.016000000759959221
      vertex 0.085000000894069672 -0.0070000002160668373 0.016000000759959221
      vertex 0.085000000894069672 -0.01549999974668026 -0.032499998807907104
    endloop
  endfacet
endsolid OBJECT
